%TF.GenerationSoftware,KiCad,Pcbnew,9.0.7*%
%TF.CreationDate,2026-01-10T14:03:11+05:30*%
%TF.ProjectId,first,66697273-742e-46b6-9963-61645f706362,rev?*%
%TF.SameCoordinates,Original*%
%TF.FileFunction,Copper,L1,Top*%
%TF.FilePolarity,Positive*%
%FSLAX46Y46*%
G04 Gerber Fmt 4.6, Leading zero omitted, Abs format (unit mm)*
G04 Created by KiCad (PCBNEW 9.0.7) date 2026-01-10 14:03:11*
%MOMM*%
%LPD*%
G01*
G04 APERTURE LIST*
G04 Aperture macros list*
%AMRoundRect*
0 Rectangle with rounded corners*
0 $1 Rounding radius*
0 $2 $3 $4 $5 $6 $7 $8 $9 X,Y pos of 4 corners*
0 Add a 4 corners polygon primitive as box body*
4,1,4,$2,$3,$4,$5,$6,$7,$8,$9,$2,$3,0*
0 Add four circle primitives for the rounded corners*
1,1,$1+$1,$2,$3*
1,1,$1+$1,$4,$5*
1,1,$1+$1,$6,$7*
1,1,$1+$1,$8,$9*
0 Add four rect primitives between the rounded corners*
20,1,$1+$1,$2,$3,$4,$5,0*
20,1,$1+$1,$4,$5,$6,$7,0*
20,1,$1+$1,$6,$7,$8,$9,0*
20,1,$1+$1,$8,$9,$2,$3,0*%
G04 Aperture macros list end*
%TA.AperFunction,ComponentPad*%
%ADD10R,1.700000X1.700000*%
%TD*%
%TA.AperFunction,ComponentPad*%
%ADD11C,1.700000*%
%TD*%
%TA.AperFunction,ComponentPad*%
%ADD12C,1.600000*%
%TD*%
%TA.AperFunction,ComponentPad*%
%ADD13RoundRect,0.250000X-0.550000X-0.550000X0.550000X-0.550000X0.550000X0.550000X-0.550000X0.550000X0*%
%TD*%
%TA.AperFunction,ComponentPad*%
%ADD14C,2.000000*%
%TD*%
%TA.AperFunction,Conductor*%
%ADD15C,0.200000*%
%TD*%
%TA.AperFunction,Conductor*%
%ADD16C,0.300000*%
%TD*%
%TA.AperFunction,Conductor*%
%ADD17C,0.500000*%
%TD*%
G04 APERTURE END LIST*
D10*
%TO.P,BATTERY,1,1*%
%TO.N,GND*%
X82500000Y-83500000D03*
D11*
%TO.P,BATTERY,2,2*%
%TO.N,VCC*%
X82500000Y-86040000D03*
%TD*%
D10*
%TO.P,SENSE,1,1*%
%TO.N,Net-(R2-Pad2)*%
X106000000Y-82960000D03*
D11*
%TO.P,SENSE,2,2*%
%TO.N,/TR*%
X106000000Y-85500000D03*
%TD*%
D12*
%TO.P,R2,1*%
%TO.N,/DIS*%
X88150000Y-87750000D03*
%TO.P,R2,2*%
%TO.N,Net-(R2-Pad2)*%
X100850000Y-87750000D03*
%TD*%
%TO.P,R1,1*%
%TO.N,VCC*%
X88150000Y-83000000D03*
%TO.P,R1,2*%
%TO.N,/DIS*%
X100850000Y-83000000D03*
%TD*%
%TO.P,C2,2*%
%TO.N,Net-(C2-Pad2)*%
X86000000Y-102500000D03*
D13*
%TO.P,C2,1*%
%TO.N,/OUT*%
X82500000Y-102500000D03*
%TD*%
D11*
%TO.P,BUZZER,2,2*%
%TO.N,GND*%
X96000000Y-106500000D03*
D10*
%TO.P,BUZZER,1,1*%
%TO.N,Net-(C2-Pad2)*%
X93460000Y-106500000D03*
%TD*%
D14*
%TO.P,C1,2*%
%TO.N,GND*%
X106000000Y-97500000D03*
%TO.P,C1,1*%
%TO.N,/TR*%
X106000000Y-107500000D03*
%TD*%
D12*
%TO.P,U1,8,VCC*%
%TO.N,VCC*%
X98315000Y-93190000D03*
%TO.P,U1,7,DISCH*%
%TO.N,/DIS*%
X98315000Y-95730000D03*
%TO.P,U1,6,THRES*%
%TO.N,/TR*%
X98315000Y-98270000D03*
%TO.P,U1,5,CONT*%
%TO.N,unconnected-(U1-CONT-Pad5)*%
X98315000Y-100810000D03*
%TO.P,U1,4,~{RST}*%
%TO.N,VCC*%
X90695000Y-100810000D03*
%TO.P,U1,3,OUT*%
%TO.N,/OUT*%
X90695000Y-98270000D03*
%TO.P,U1,2,TRIG*%
%TO.N,/TR*%
X90695000Y-95730000D03*
D13*
%TO.P,U1,1,GND*%
%TO.N,GND*%
X90695000Y-93190000D03*
%TD*%
D15*
%TO.N,Net-(C2-Pad2)*%
X90000000Y-106500000D02*
X86000000Y-102500000D01*
X93460000Y-106500000D02*
X90000000Y-106500000D01*
D16*
%TO.N,/TR*%
X90695000Y-95730000D02*
X93235000Y-98270000D01*
D15*
%TO.N,/OUT*%
X86730000Y-98270000D02*
X82500000Y-102500000D01*
X90695000Y-98270000D02*
X86730000Y-98270000D01*
D17*
%TO.N,GND*%
X86899000Y-87899000D02*
X82500000Y-83500000D01*
X86899000Y-89394000D02*
X86899000Y-87899000D01*
X90695000Y-93190000D02*
X86899000Y-89394000D01*
D16*
%TO.N,/TR*%
X106000000Y-105955000D02*
X106000000Y-107500000D01*
X98315000Y-98270000D02*
X106000000Y-105955000D01*
%TO.N,/DIS*%
X101000000Y-80000000D02*
X101000000Y-80500000D01*
X101000000Y-80500000D02*
X100850000Y-80650000D01*
X100850000Y-80650000D02*
X100850000Y-83000000D01*
X85000000Y-80000000D02*
X101000000Y-80000000D01*
X85000000Y-84600000D02*
X85000000Y-80000000D01*
X88150000Y-87750000D02*
X85000000Y-84600000D01*
D17*
%TO.N,VCC*%
X88150000Y-83000000D02*
X98315000Y-93165000D01*
X98315000Y-93165000D02*
X98315000Y-93190000D01*
D16*
%TO.N,/DIS*%
X90335000Y-87750000D02*
X98315000Y-95730000D01*
X88150000Y-87750000D02*
X90335000Y-87750000D01*
%TO.N,/TR*%
X107351000Y-106149000D02*
X106000000Y-107500000D01*
X107351000Y-86851000D02*
X107351000Y-106149000D01*
X106000000Y-85500000D02*
X107351000Y-86851000D01*
%TO.N,Net-(R2-Pad2)*%
X105640000Y-82960000D02*
X100850000Y-87750000D01*
X106000000Y-82960000D02*
X105640000Y-82960000D01*
D17*
%TO.N,GND*%
X82500000Y-83500000D02*
X83500000Y-83500000D01*
D16*
%TO.N,/TR*%
X93235000Y-98270000D02*
X98315000Y-98270000D01*
%TD*%
%TA.AperFunction,Conductor*%
%TO.N,GND*%
G36*
X109942539Y-79020185D02*
G01*
X109988294Y-79072989D01*
X109999500Y-79124500D01*
X109999500Y-109875500D01*
X109979815Y-109942539D01*
X109927011Y-109988294D01*
X109875500Y-109999500D01*
X79124500Y-109999500D01*
X79057461Y-109979815D01*
X79011706Y-109927011D01*
X79000500Y-109875500D01*
X79000500Y-101899983D01*
X81199500Y-101899983D01*
X81199500Y-103100001D01*
X81199501Y-103100018D01*
X81210000Y-103202796D01*
X81210001Y-103202799D01*
X81257856Y-103347213D01*
X81265186Y-103369334D01*
X81357288Y-103518656D01*
X81481344Y-103642712D01*
X81630666Y-103734814D01*
X81797203Y-103789999D01*
X81899991Y-103800500D01*
X83100008Y-103800499D01*
X83202797Y-103789999D01*
X83369334Y-103734814D01*
X83518656Y-103642712D01*
X83642712Y-103518656D01*
X83734814Y-103369334D01*
X83789999Y-103202797D01*
X83800500Y-103100009D01*
X83800499Y-102397648D01*
X84699500Y-102397648D01*
X84699500Y-102602351D01*
X84731522Y-102804534D01*
X84794781Y-102999223D01*
X84887715Y-103181613D01*
X85008028Y-103347213D01*
X85152786Y-103491971D01*
X85307749Y-103604556D01*
X85318390Y-103612287D01*
X85434607Y-103671503D01*
X85500776Y-103705218D01*
X85500778Y-103705218D01*
X85500781Y-103705220D01*
X85591856Y-103734812D01*
X85695465Y-103768477D01*
X85796557Y-103784488D01*
X85897648Y-103800500D01*
X85897649Y-103800500D01*
X86102351Y-103800500D01*
X86102352Y-103800500D01*
X86304534Y-103768477D01*
X86318842Y-103763827D01*
X86388682Y-103761831D01*
X86444842Y-103794077D01*
X89515139Y-106864374D01*
X89515149Y-106864385D01*
X89519479Y-106868715D01*
X89519480Y-106868716D01*
X89631284Y-106980520D01*
X89671152Y-107003537D01*
X89718095Y-107030639D01*
X89718097Y-107030641D01*
X89768213Y-107059576D01*
X89768215Y-107059577D01*
X89920942Y-107100500D01*
X89920943Y-107100500D01*
X91985501Y-107100500D01*
X92052540Y-107120185D01*
X92098295Y-107172989D01*
X92109501Y-107224500D01*
X92109501Y-107397876D01*
X92115908Y-107457483D01*
X92166202Y-107592328D01*
X92166206Y-107592335D01*
X92252452Y-107707544D01*
X92252455Y-107707547D01*
X92367664Y-107793793D01*
X92367671Y-107793797D01*
X92502517Y-107844091D01*
X92502516Y-107844091D01*
X92509444Y-107844835D01*
X92562127Y-107850500D01*
X94357872Y-107850499D01*
X94417483Y-107844091D01*
X94552331Y-107793796D01*
X94667546Y-107707546D01*
X94753796Y-107592331D01*
X94804091Y-107457483D01*
X94810500Y-107397873D01*
X94810499Y-107373979D01*
X94813330Y-107360963D01*
X94823940Y-107341525D01*
X94830179Y-107320275D01*
X94846803Y-107299643D01*
X94846808Y-107299636D01*
X94846811Y-107299634D01*
X94846818Y-107299626D01*
X95517037Y-106629408D01*
X95534075Y-106692993D01*
X95599901Y-106807007D01*
X95692993Y-106900099D01*
X95807007Y-106965925D01*
X95870590Y-106982962D01*
X95238282Y-107615269D01*
X95238282Y-107615270D01*
X95292449Y-107654624D01*
X95481782Y-107751095D01*
X95683870Y-107816757D01*
X95893754Y-107850000D01*
X96106246Y-107850000D01*
X96316127Y-107816757D01*
X96316130Y-107816757D01*
X96518217Y-107751095D01*
X96707554Y-107654622D01*
X96761716Y-107615270D01*
X96761717Y-107615270D01*
X96129408Y-106982962D01*
X96192993Y-106965925D01*
X96307007Y-106900099D01*
X96400099Y-106807007D01*
X96465925Y-106692993D01*
X96482962Y-106629409D01*
X97115270Y-107261717D01*
X97115270Y-107261716D01*
X97154622Y-107207554D01*
X97251095Y-107018217D01*
X97316757Y-106816130D01*
X97316757Y-106816127D01*
X97350000Y-106606246D01*
X97350000Y-106393753D01*
X97316757Y-106183872D01*
X97316757Y-106183869D01*
X97251095Y-105981782D01*
X97154624Y-105792449D01*
X97115270Y-105738282D01*
X97115269Y-105738282D01*
X96482962Y-106370590D01*
X96465925Y-106307007D01*
X96400099Y-106192993D01*
X96307007Y-106099901D01*
X96192993Y-106034075D01*
X96129409Y-106017037D01*
X96761716Y-105384728D01*
X96707550Y-105345375D01*
X96518217Y-105248904D01*
X96316129Y-105183242D01*
X96106246Y-105150000D01*
X95893754Y-105150000D01*
X95683872Y-105183242D01*
X95683869Y-105183242D01*
X95481782Y-105248904D01*
X95292439Y-105345380D01*
X95238282Y-105384727D01*
X95238282Y-105384728D01*
X95870591Y-106017037D01*
X95807007Y-106034075D01*
X95692993Y-106099901D01*
X95599901Y-106192993D01*
X95534075Y-106307007D01*
X95517037Y-106370591D01*
X94846818Y-105700372D01*
X94813333Y-105639049D01*
X94813330Y-105639036D01*
X94810499Y-105626015D01*
X94810499Y-105602128D01*
X94804091Y-105542517D01*
X94775926Y-105467002D01*
X94753798Y-105407673D01*
X94753793Y-105407664D01*
X94667547Y-105292455D01*
X94667544Y-105292452D01*
X94552335Y-105206206D01*
X94552328Y-105206202D01*
X94417482Y-105155908D01*
X94417483Y-105155908D01*
X94357883Y-105149501D01*
X94357881Y-105149500D01*
X94357873Y-105149500D01*
X94357864Y-105149500D01*
X92562129Y-105149500D01*
X92562123Y-105149501D01*
X92502516Y-105155908D01*
X92367671Y-105206202D01*
X92367664Y-105206206D01*
X92252455Y-105292452D01*
X92252452Y-105292455D01*
X92166206Y-105407664D01*
X92166202Y-105407671D01*
X92115908Y-105542517D01*
X92109501Y-105602116D01*
X92109500Y-105602135D01*
X92109500Y-105775500D01*
X92089815Y-105842539D01*
X92037011Y-105888294D01*
X91985500Y-105899500D01*
X90300097Y-105899500D01*
X90233058Y-105879815D01*
X90212416Y-105863181D01*
X87294077Y-102944842D01*
X87260592Y-102883519D01*
X87263828Y-102818841D01*
X87268477Y-102804534D01*
X87300500Y-102602352D01*
X87300500Y-102397648D01*
X87268477Y-102195466D01*
X87205220Y-102000781D01*
X87205218Y-102000778D01*
X87205218Y-102000776D01*
X87153865Y-101899991D01*
X87112287Y-101818390D01*
X87096894Y-101797203D01*
X86991971Y-101652786D01*
X86847213Y-101508028D01*
X86681613Y-101387715D01*
X86681612Y-101387714D01*
X86681610Y-101387713D01*
X86621898Y-101357288D01*
X86499223Y-101294781D01*
X86304534Y-101231522D01*
X86129995Y-101203878D01*
X86102352Y-101199500D01*
X85897648Y-101199500D01*
X85873329Y-101203351D01*
X85695465Y-101231522D01*
X85500776Y-101294781D01*
X85318386Y-101387715D01*
X85152786Y-101508028D01*
X85008028Y-101652786D01*
X84887715Y-101818386D01*
X84794781Y-102000776D01*
X84731522Y-102195465D01*
X84699500Y-102397648D01*
X83800499Y-102397648D01*
X83800499Y-102100095D01*
X83820184Y-102033057D01*
X83836813Y-102012420D01*
X86942416Y-98906819D01*
X87003739Y-98873334D01*
X87030097Y-98870500D01*
X89465398Y-98870500D01*
X89532437Y-98890185D01*
X89575883Y-98938205D01*
X89582715Y-98951614D01*
X89703028Y-99117213D01*
X89847786Y-99261971D01*
X90002749Y-99374556D01*
X90013390Y-99382287D01*
X90104840Y-99428883D01*
X90106080Y-99429515D01*
X90156876Y-99477490D01*
X90173671Y-99545311D01*
X90151134Y-99611446D01*
X90106080Y-99650485D01*
X90013386Y-99697715D01*
X89847786Y-99818028D01*
X89703028Y-99962786D01*
X89582715Y-100128386D01*
X89489781Y-100310776D01*
X89426522Y-100505465D01*
X89394500Y-100707648D01*
X89394500Y-100912351D01*
X89426522Y-101114534D01*
X89489781Y-101309223D01*
X89553691Y-101434653D01*
X89577482Y-101481344D01*
X89582715Y-101491613D01*
X89703028Y-101657213D01*
X89847786Y-101801971D01*
X89982691Y-101899983D01*
X90013390Y-101922287D01*
X90129607Y-101981503D01*
X90195776Y-102015218D01*
X90195778Y-102015218D01*
X90195781Y-102015220D01*
X90250678Y-102033057D01*
X90390465Y-102078477D01*
X90491557Y-102094488D01*
X90592648Y-102110500D01*
X90592649Y-102110500D01*
X90797351Y-102110500D01*
X90797352Y-102110500D01*
X90999534Y-102078477D01*
X91194219Y-102015220D01*
X91376610Y-101922287D01*
X91469590Y-101854732D01*
X91542213Y-101801971D01*
X91542215Y-101801968D01*
X91542219Y-101801966D01*
X91686966Y-101657219D01*
X91686968Y-101657215D01*
X91686971Y-101657213D01*
X91795354Y-101508034D01*
X91807287Y-101491610D01*
X91900220Y-101309219D01*
X91963477Y-101114534D01*
X91995500Y-100912352D01*
X91995500Y-100707648D01*
X91963477Y-100505466D01*
X91900220Y-100310781D01*
X91900218Y-100310778D01*
X91900218Y-100310776D01*
X91866503Y-100244607D01*
X91807287Y-100128390D01*
X91799556Y-100117749D01*
X91686971Y-99962786D01*
X91542213Y-99818028D01*
X91376614Y-99697715D01*
X91370006Y-99694348D01*
X91283917Y-99650483D01*
X91233123Y-99602511D01*
X91216328Y-99534690D01*
X91238865Y-99468555D01*
X91283917Y-99429516D01*
X91376610Y-99382287D01*
X91397770Y-99366913D01*
X91542213Y-99261971D01*
X91542215Y-99261968D01*
X91542219Y-99261966D01*
X91686966Y-99117219D01*
X91686968Y-99117215D01*
X91686971Y-99117213D01*
X91772775Y-98999112D01*
X91807287Y-98951610D01*
X91900220Y-98769219D01*
X91963477Y-98574534D01*
X91995500Y-98372352D01*
X91995500Y-98249808D01*
X92015185Y-98182769D01*
X92067989Y-98137014D01*
X92137147Y-98127070D01*
X92200703Y-98156095D01*
X92207181Y-98162127D01*
X92820324Y-98775271D01*
X92820327Y-98775274D01*
X92901599Y-98829578D01*
X92901598Y-98829578D01*
X92920574Y-98842256D01*
X92926873Y-98846465D01*
X93045256Y-98895501D01*
X93045260Y-98895501D01*
X93045261Y-98895502D01*
X93170928Y-98920500D01*
X93170931Y-98920500D01*
X97116929Y-98920500D01*
X97183968Y-98940185D01*
X97217245Y-98971613D01*
X97252588Y-99020257D01*
X97323034Y-99117219D01*
X97467786Y-99261971D01*
X97622749Y-99374556D01*
X97633390Y-99382287D01*
X97724840Y-99428883D01*
X97726080Y-99429515D01*
X97776876Y-99477490D01*
X97793671Y-99545311D01*
X97771134Y-99611446D01*
X97726080Y-99650485D01*
X97633386Y-99697715D01*
X97467786Y-99818028D01*
X97323028Y-99962786D01*
X97202715Y-100128386D01*
X97109781Y-100310776D01*
X97046522Y-100505465D01*
X97014500Y-100707648D01*
X97014500Y-100912351D01*
X97046522Y-101114534D01*
X97109781Y-101309223D01*
X97173691Y-101434653D01*
X97197482Y-101481344D01*
X97202715Y-101491613D01*
X97323028Y-101657213D01*
X97467786Y-101801971D01*
X97602691Y-101899983D01*
X97633390Y-101922287D01*
X97749607Y-101981503D01*
X97815776Y-102015218D01*
X97815778Y-102015218D01*
X97815781Y-102015220D01*
X97870678Y-102033057D01*
X98010465Y-102078477D01*
X98111557Y-102094488D01*
X98212648Y-102110500D01*
X98212649Y-102110500D01*
X98417351Y-102110500D01*
X98417352Y-102110500D01*
X98619534Y-102078477D01*
X98814219Y-102015220D01*
X98996610Y-101922287D01*
X99089590Y-101854732D01*
X99162213Y-101801971D01*
X99162215Y-101801968D01*
X99162219Y-101801966D01*
X99306966Y-101657219D01*
X99306968Y-101657215D01*
X99306971Y-101657213D01*
X99415354Y-101508034D01*
X99427287Y-101491610D01*
X99520220Y-101309219D01*
X99583477Y-101114534D01*
X99615500Y-100912352D01*
X99615500Y-100789807D01*
X99635185Y-100722768D01*
X99687989Y-100677013D01*
X99757147Y-100667069D01*
X99820703Y-100696094D01*
X99827167Y-100702113D01*
X102472268Y-103347213D01*
X105185126Y-106060071D01*
X105218611Y-106121394D01*
X105213627Y-106191086D01*
X105171755Y-106247019D01*
X105170340Y-106248063D01*
X105022490Y-106355483D01*
X105022488Y-106355485D01*
X105022487Y-106355485D01*
X104855485Y-106522487D01*
X104855485Y-106522488D01*
X104855483Y-106522490D01*
X104795862Y-106604550D01*
X104716657Y-106713566D01*
X104609433Y-106924003D01*
X104536446Y-107148631D01*
X104499500Y-107381902D01*
X104499500Y-107618097D01*
X104536446Y-107851368D01*
X104609433Y-108075996D01*
X104716657Y-108286433D01*
X104855483Y-108477510D01*
X105022490Y-108644517D01*
X105213567Y-108783343D01*
X105312991Y-108834002D01*
X105424003Y-108890566D01*
X105424005Y-108890566D01*
X105424008Y-108890568D01*
X105544412Y-108929689D01*
X105648631Y-108963553D01*
X105881903Y-109000500D01*
X105881908Y-109000500D01*
X106118097Y-109000500D01*
X106351368Y-108963553D01*
X106575992Y-108890568D01*
X106786433Y-108783343D01*
X106977510Y-108644517D01*
X107144517Y-108477510D01*
X107283343Y-108286433D01*
X107390568Y-108075992D01*
X107463553Y-107851368D01*
X107472671Y-107793797D01*
X107500500Y-107618097D01*
X107500500Y-107381902D01*
X107472885Y-107207554D01*
X107463553Y-107148632D01*
X107439888Y-107075802D01*
X107437894Y-107005963D01*
X107470136Y-106949808D01*
X107856277Y-106563669D01*
X107927466Y-106457126D01*
X107976501Y-106338743D01*
X107991543Y-106263127D01*
X108001500Y-106213069D01*
X108001500Y-86786931D01*
X108001500Y-86786928D01*
X107976502Y-86661260D01*
X107976500Y-86661254D01*
X107966749Y-86637715D01*
X107956189Y-86612221D01*
X107928256Y-86544781D01*
X107927468Y-86542878D01*
X107927462Y-86542868D01*
X107856278Y-86436332D01*
X107856272Y-86436325D01*
X107350657Y-85930711D01*
X107317172Y-85869388D01*
X107317689Y-85821245D01*
X107316484Y-85821055D01*
X107350500Y-85606286D01*
X107350500Y-85393713D01*
X107340754Y-85332179D01*
X107317246Y-85183757D01*
X107251557Y-84981588D01*
X107155051Y-84792184D01*
X107155049Y-84792181D01*
X107155048Y-84792179D01*
X107030109Y-84620213D01*
X106916569Y-84506673D01*
X106883084Y-84445350D01*
X106888068Y-84375658D01*
X106929940Y-84319725D01*
X106960915Y-84302810D01*
X107092331Y-84253796D01*
X107207546Y-84167546D01*
X107293796Y-84052331D01*
X107344091Y-83917483D01*
X107350500Y-83857873D01*
X107350499Y-82062128D01*
X107344091Y-82002517D01*
X107306692Y-81902246D01*
X107293797Y-81867671D01*
X107293793Y-81867664D01*
X107207547Y-81752455D01*
X107207544Y-81752452D01*
X107092335Y-81666206D01*
X107092328Y-81666202D01*
X106957482Y-81615908D01*
X106957483Y-81615908D01*
X106897883Y-81609501D01*
X106897881Y-81609500D01*
X106897873Y-81609500D01*
X106897864Y-81609500D01*
X105102129Y-81609500D01*
X105102123Y-81609501D01*
X105042516Y-81615908D01*
X104907671Y-81666202D01*
X104907664Y-81666206D01*
X104792455Y-81752452D01*
X104792452Y-81752455D01*
X104706206Y-81867664D01*
X104706202Y-81867671D01*
X104655908Y-82002517D01*
X104649501Y-82062116D01*
X104649501Y-82062123D01*
X104649500Y-82062135D01*
X104649500Y-82979191D01*
X104629815Y-83046230D01*
X104613181Y-83066872D01*
X101237190Y-86442862D01*
X101175867Y-86476347D01*
X101130111Y-86477654D01*
X100984611Y-86454609D01*
X100952352Y-86449500D01*
X100747648Y-86449500D01*
X100723329Y-86453351D01*
X100545465Y-86481522D01*
X100350776Y-86544781D01*
X100168386Y-86637715D01*
X100002786Y-86758028D01*
X99858028Y-86902786D01*
X99737715Y-87068386D01*
X99644781Y-87250776D01*
X99581522Y-87445465D01*
X99549500Y-87647648D01*
X99549500Y-87852351D01*
X99581522Y-88054534D01*
X99644781Y-88249223D01*
X99737715Y-88431613D01*
X99858028Y-88597213D01*
X100002786Y-88741971D01*
X100157749Y-88854556D01*
X100168390Y-88862287D01*
X100284607Y-88921503D01*
X100350776Y-88955218D01*
X100350778Y-88955218D01*
X100350781Y-88955220D01*
X100455137Y-88989127D01*
X100545465Y-89018477D01*
X100646557Y-89034488D01*
X100747648Y-89050500D01*
X100747649Y-89050500D01*
X100952351Y-89050500D01*
X100952352Y-89050500D01*
X101154534Y-89018477D01*
X101349219Y-88955220D01*
X101531610Y-88862287D01*
X101624590Y-88794732D01*
X101697213Y-88741971D01*
X101697215Y-88741968D01*
X101697219Y-88741966D01*
X101841966Y-88597219D01*
X101841968Y-88597215D01*
X101841971Y-88597213D01*
X101894732Y-88524590D01*
X101962287Y-88431610D01*
X102055220Y-88249219D01*
X102118477Y-88054534D01*
X102150500Y-87852352D01*
X102150500Y-87647648D01*
X102122345Y-87469886D01*
X102131300Y-87400593D01*
X102157134Y-87362810D01*
X104484342Y-85035602D01*
X104545663Y-85002119D01*
X104615355Y-85007103D01*
X104671288Y-85048975D01*
X104695705Y-85114439D01*
X104689953Y-85161601D01*
X104682753Y-85183761D01*
X104649500Y-85393713D01*
X104649500Y-85606286D01*
X104668105Y-85723757D01*
X104682754Y-85816243D01*
X104720922Y-85933713D01*
X104748444Y-86018414D01*
X104844951Y-86207820D01*
X104969890Y-86379786D01*
X105120213Y-86530109D01*
X105292179Y-86655048D01*
X105292181Y-86655049D01*
X105292184Y-86655051D01*
X105481588Y-86751557D01*
X105683757Y-86817246D01*
X105893713Y-86850500D01*
X105893714Y-86850500D01*
X106106286Y-86850500D01*
X106106287Y-86850500D01*
X106216111Y-86833105D01*
X106321055Y-86816484D01*
X106321315Y-86818128D01*
X106383852Y-86821250D01*
X106430711Y-86850657D01*
X106664181Y-87084127D01*
X106697666Y-87145450D01*
X106700500Y-87171808D01*
X106700500Y-95979742D01*
X106680815Y-96046781D01*
X106628011Y-96092536D01*
X106558853Y-96102480D01*
X106538182Y-96097673D01*
X106351247Y-96036934D01*
X106351248Y-96036934D01*
X106118052Y-96000000D01*
X105881948Y-96000000D01*
X105648752Y-96036934D01*
X105424197Y-96109897D01*
X105213830Y-96217084D01*
X105130894Y-96277340D01*
X105870591Y-97017037D01*
X105807007Y-97034075D01*
X105692993Y-97099901D01*
X105599901Y-97192993D01*
X105534075Y-97307007D01*
X105517037Y-97370591D01*
X104777340Y-96630894D01*
X104717084Y-96713830D01*
X104609897Y-96924197D01*
X104536934Y-97148752D01*
X104500000Y-97381947D01*
X104500000Y-97618052D01*
X104536934Y-97851247D01*
X104609897Y-98075802D01*
X104717087Y-98286174D01*
X104777338Y-98369104D01*
X104777340Y-98369105D01*
X105517037Y-97629408D01*
X105534075Y-97692993D01*
X105599901Y-97807007D01*
X105692993Y-97900099D01*
X105807007Y-97965925D01*
X105870589Y-97982962D01*
X105130893Y-98722658D01*
X105213828Y-98782914D01*
X105424197Y-98890102D01*
X105648752Y-98963065D01*
X105648751Y-98963065D01*
X105881948Y-99000000D01*
X106118052Y-99000000D01*
X106351245Y-98963065D01*
X106538181Y-98902326D01*
X106608022Y-98900331D01*
X106667855Y-98936411D01*
X106698684Y-98999112D01*
X106700500Y-99020257D01*
X106700500Y-105436192D01*
X106694261Y-105457437D01*
X106692682Y-105479525D01*
X106684609Y-105490308D01*
X106680815Y-105503231D01*
X106664083Y-105517729D01*
X106650811Y-105535459D01*
X106638188Y-105540166D01*
X106628011Y-105548986D01*
X106606095Y-105552137D01*
X106585347Y-105559876D01*
X106572185Y-105557013D01*
X106558853Y-105558930D01*
X106538711Y-105549731D01*
X106517074Y-105545025D01*
X106499345Y-105531753D01*
X106495297Y-105529905D01*
X106488819Y-105523874D01*
X106455253Y-105490308D01*
X106414669Y-105449724D01*
X103043422Y-102078477D01*
X99622137Y-98657191D01*
X99588652Y-98595868D01*
X99587345Y-98550112D01*
X99615500Y-98372351D01*
X99615500Y-98167648D01*
X99583477Y-97965465D01*
X99546365Y-97851247D01*
X99520220Y-97770781D01*
X99520218Y-97770778D01*
X99520218Y-97770776D01*
X99480585Y-97692993D01*
X99427287Y-97588390D01*
X99410294Y-97565001D01*
X99326713Y-97449960D01*
X99326712Y-97449959D01*
X99306969Y-97422784D01*
X99162213Y-97278028D01*
X98996614Y-97157715D01*
X98979023Y-97148752D01*
X98903917Y-97110483D01*
X98853123Y-97062511D01*
X98836328Y-96994690D01*
X98858865Y-96928555D01*
X98903917Y-96889516D01*
X98996610Y-96842287D01*
X99017770Y-96826913D01*
X99162213Y-96721971D01*
X99162215Y-96721968D01*
X99162219Y-96721966D01*
X99306966Y-96577219D01*
X99306968Y-96577215D01*
X99306971Y-96577213D01*
X99359732Y-96504590D01*
X99427287Y-96411610D01*
X99520220Y-96229219D01*
X99583477Y-96034534D01*
X99615500Y-95832352D01*
X99615500Y-95627648D01*
X99583477Y-95425466D01*
X99520220Y-95230781D01*
X99520218Y-95230778D01*
X99520218Y-95230776D01*
X99486503Y-95164607D01*
X99427287Y-95048390D01*
X99419556Y-95037749D01*
X99306971Y-94882786D01*
X99162213Y-94738028D01*
X98996614Y-94617715D01*
X98989884Y-94614286D01*
X98903917Y-94570483D01*
X98853123Y-94522511D01*
X98836328Y-94454690D01*
X98858865Y-94388555D01*
X98903917Y-94349516D01*
X98996610Y-94302287D01*
X99017770Y-94286913D01*
X99162213Y-94181971D01*
X99162215Y-94181968D01*
X99162219Y-94181966D01*
X99306966Y-94037219D01*
X99306968Y-94037215D01*
X99306971Y-94037213D01*
X99359732Y-93964590D01*
X99427287Y-93871610D01*
X99520220Y-93689219D01*
X99583477Y-93494534D01*
X99615500Y-93292352D01*
X99615500Y-93087648D01*
X99593380Y-92947988D01*
X99583477Y-92885465D01*
X99520218Y-92690776D01*
X99486503Y-92624607D01*
X99427287Y-92508390D01*
X99411966Y-92487302D01*
X99306971Y-92342786D01*
X99162213Y-92198028D01*
X98996613Y-92077715D01*
X98996612Y-92077714D01*
X98996610Y-92077713D01*
X98937675Y-92047684D01*
X98814223Y-91984781D01*
X98619534Y-91921522D01*
X98444995Y-91893878D01*
X98417352Y-91889500D01*
X98212648Y-91889500D01*
X98212642Y-91889500D01*
X98178553Y-91894899D01*
X98109260Y-91885944D01*
X98071475Y-91860107D01*
X89476473Y-83265105D01*
X89442988Y-83203782D01*
X89441681Y-83158027D01*
X89450500Y-83102352D01*
X89450500Y-82897648D01*
X89418477Y-82695466D01*
X89355220Y-82500781D01*
X89355218Y-82500778D01*
X89355218Y-82500776D01*
X89307898Y-82407906D01*
X89262287Y-82318390D01*
X89243704Y-82292812D01*
X89141971Y-82152786D01*
X88997213Y-82008028D01*
X88831613Y-81887715D01*
X88831612Y-81887714D01*
X88831610Y-81887713D01*
X88751542Y-81846916D01*
X88649223Y-81794781D01*
X88454534Y-81731522D01*
X88279995Y-81703878D01*
X88252352Y-81699500D01*
X88047648Y-81699500D01*
X88023329Y-81703351D01*
X87845465Y-81731522D01*
X87650776Y-81794781D01*
X87468386Y-81887715D01*
X87302786Y-82008028D01*
X87158028Y-82152786D01*
X87037715Y-82318386D01*
X86944781Y-82500776D01*
X86881522Y-82695465D01*
X86849500Y-82897648D01*
X86849500Y-83102351D01*
X86881522Y-83304534D01*
X86944781Y-83499223D01*
X87037715Y-83681613D01*
X87158028Y-83847213D01*
X87302786Y-83991971D01*
X87385872Y-84052335D01*
X87468390Y-84112287D01*
X87576838Y-84167544D01*
X87650776Y-84205218D01*
X87650778Y-84205218D01*
X87650781Y-84205220D01*
X87755137Y-84239127D01*
X87845465Y-84268477D01*
X87929564Y-84281797D01*
X88047648Y-84300500D01*
X88047649Y-84300500D01*
X88252350Y-84300500D01*
X88252352Y-84300500D01*
X88308026Y-84291681D01*
X88377318Y-84300635D01*
X88415105Y-84326473D01*
X96991944Y-92903312D01*
X97008422Y-92933489D01*
X97025195Y-92963582D01*
X97025216Y-92964246D01*
X97025429Y-92964635D01*
X97028019Y-92998763D01*
X97027651Y-93004610D01*
X97014500Y-93087648D01*
X97014500Y-93214075D01*
X97014256Y-93217962D01*
X97003606Y-93247291D01*
X96994815Y-93277231D01*
X96991780Y-93279860D01*
X96990409Y-93283637D01*
X96965583Y-93302560D01*
X96942011Y-93322986D01*
X96938037Y-93323557D01*
X96934842Y-93325993D01*
X96903732Y-93328489D01*
X96872853Y-93332930D01*
X96869199Y-93331261D01*
X96865196Y-93331583D01*
X96837680Y-93316867D01*
X96809297Y-93303905D01*
X96803701Y-93298694D01*
X96803584Y-93298632D01*
X96803529Y-93298534D01*
X96802819Y-93297873D01*
X90749674Y-87244727D01*
X90749673Y-87244726D01*
X90675328Y-87195051D01*
X90643127Y-87173535D01*
X90524744Y-87124499D01*
X90524738Y-87124497D01*
X90399071Y-87099500D01*
X90399069Y-87099500D01*
X89348071Y-87099500D01*
X89281032Y-87079815D01*
X89247754Y-87048386D01*
X89141966Y-86902781D01*
X88997219Y-86758034D01*
X88997213Y-86758028D01*
X88831613Y-86637715D01*
X88831612Y-86637714D01*
X88831610Y-86637713D01*
X88774653Y-86608691D01*
X88649223Y-86544781D01*
X88454534Y-86481522D01*
X88279995Y-86453878D01*
X88252352Y-86449500D01*
X88047648Y-86449500D01*
X87869886Y-86477654D01*
X87800593Y-86468699D01*
X87762808Y-86442862D01*
X85686819Y-84366873D01*
X85653334Y-84305550D01*
X85650500Y-84279192D01*
X85650500Y-80774500D01*
X85670185Y-80707461D01*
X85722989Y-80661706D01*
X85774500Y-80650500D01*
X100075500Y-80650500D01*
X100142539Y-80670185D01*
X100188294Y-80722989D01*
X100199500Y-80774500D01*
X100199500Y-81801928D01*
X100179815Y-81868967D01*
X100148385Y-81902246D01*
X100002787Y-82008028D01*
X100002782Y-82008032D01*
X99858028Y-82152786D01*
X99737715Y-82318386D01*
X99644781Y-82500776D01*
X99581522Y-82695465D01*
X99549500Y-82897648D01*
X99549500Y-83102351D01*
X99581522Y-83304534D01*
X99644781Y-83499223D01*
X99737715Y-83681613D01*
X99858028Y-83847213D01*
X100002786Y-83991971D01*
X100085872Y-84052335D01*
X100168390Y-84112287D01*
X100276838Y-84167544D01*
X100350776Y-84205218D01*
X100350778Y-84205218D01*
X100350781Y-84205220D01*
X100455137Y-84239127D01*
X100545465Y-84268477D01*
X100629564Y-84281797D01*
X100747648Y-84300500D01*
X100747649Y-84300500D01*
X100952351Y-84300500D01*
X100952352Y-84300500D01*
X101154534Y-84268477D01*
X101349219Y-84205220D01*
X101531610Y-84112287D01*
X101624590Y-84044732D01*
X101697213Y-83991971D01*
X101697215Y-83991968D01*
X101697219Y-83991966D01*
X101841966Y-83847219D01*
X101841968Y-83847215D01*
X101841971Y-83847213D01*
X101912599Y-83750000D01*
X101962287Y-83681610D01*
X102055220Y-83499219D01*
X102118477Y-83304534D01*
X102150500Y-83102352D01*
X102150500Y-82897648D01*
X102118477Y-82695466D01*
X102055220Y-82500781D01*
X102055218Y-82500778D01*
X102055218Y-82500776D01*
X102007898Y-82407906D01*
X101962287Y-82318390D01*
X101943704Y-82292812D01*
X101841971Y-82152786D01*
X101697217Y-82008032D01*
X101697212Y-82008028D01*
X101551615Y-81902246D01*
X101508949Y-81846916D01*
X101500500Y-81801928D01*
X101500500Y-80959432D01*
X101520185Y-80892393D01*
X101521398Y-80890542D01*
X101576464Y-80808128D01*
X101576465Y-80808127D01*
X101625501Y-80689744D01*
X101638280Y-80625501D01*
X101650500Y-80564069D01*
X101650500Y-79935931D01*
X101650500Y-79935928D01*
X101625502Y-79810261D01*
X101625501Y-79810260D01*
X101625501Y-79810256D01*
X101576465Y-79691873D01*
X101576464Y-79691872D01*
X101576461Y-79691866D01*
X101505276Y-79585331D01*
X101505273Y-79585327D01*
X101414672Y-79494726D01*
X101414668Y-79494723D01*
X101308133Y-79423538D01*
X101308124Y-79423533D01*
X101189744Y-79374499D01*
X101189738Y-79374497D01*
X101064071Y-79349500D01*
X101064069Y-79349500D01*
X85064069Y-79349500D01*
X84935931Y-79349500D01*
X84935929Y-79349500D01*
X84810261Y-79374497D01*
X84810255Y-79374499D01*
X84691875Y-79423533D01*
X84691866Y-79423538D01*
X84585331Y-79494723D01*
X84585327Y-79494726D01*
X84494726Y-79585327D01*
X84494723Y-79585331D01*
X84423538Y-79691866D01*
X84423533Y-79691875D01*
X84374499Y-79810255D01*
X84374497Y-79810261D01*
X84349500Y-79935928D01*
X84349500Y-84664070D01*
X84361195Y-84722860D01*
X84361195Y-84722862D01*
X84374497Y-84789736D01*
X84374499Y-84789744D01*
X84413662Y-84884293D01*
X84423535Y-84908127D01*
X84489668Y-85007103D01*
X84494726Y-85014673D01*
X84494727Y-85014674D01*
X86842862Y-87362808D01*
X86876347Y-87424131D01*
X86877654Y-87469886D01*
X86849500Y-87647647D01*
X86849500Y-87852351D01*
X86881522Y-88054534D01*
X86944781Y-88249223D01*
X87037715Y-88431613D01*
X87158028Y-88597213D01*
X87302786Y-88741971D01*
X87457749Y-88854556D01*
X87468390Y-88862287D01*
X87584607Y-88921503D01*
X87650776Y-88955218D01*
X87650778Y-88955218D01*
X87650781Y-88955220D01*
X87755137Y-88989127D01*
X87845465Y-89018477D01*
X87946557Y-89034488D01*
X88047648Y-89050500D01*
X88047649Y-89050500D01*
X88252351Y-89050500D01*
X88252352Y-89050500D01*
X88454534Y-89018477D01*
X88649219Y-88955220D01*
X88831610Y-88862287D01*
X88924590Y-88794732D01*
X88997213Y-88741971D01*
X88997215Y-88741968D01*
X88997219Y-88741966D01*
X89141966Y-88597219D01*
X89247753Y-88451613D01*
X89303082Y-88408949D01*
X89348071Y-88400500D01*
X90014192Y-88400500D01*
X90081231Y-88420185D01*
X90101873Y-88436819D01*
X97007862Y-95342808D01*
X97041347Y-95404131D01*
X97042654Y-95449886D01*
X97014500Y-95627647D01*
X97014500Y-95832351D01*
X97046522Y-96034534D01*
X97109781Y-96229223D01*
X97202715Y-96411613D01*
X97323028Y-96577213D01*
X97467786Y-96721971D01*
X97622749Y-96834556D01*
X97633390Y-96842287D01*
X97724840Y-96888883D01*
X97726080Y-96889515D01*
X97776876Y-96937490D01*
X97793671Y-97005311D01*
X97771134Y-97071446D01*
X97726080Y-97110485D01*
X97633386Y-97157715D01*
X97467786Y-97278028D01*
X97323034Y-97422780D01*
X97303288Y-97449959D01*
X97217246Y-97568386D01*
X97161918Y-97611051D01*
X97116929Y-97619500D01*
X93555808Y-97619500D01*
X93488769Y-97599815D01*
X93468127Y-97583181D01*
X92002137Y-96117191D01*
X91968652Y-96055868D01*
X91967345Y-96010112D01*
X91995500Y-95832351D01*
X91995500Y-95627648D01*
X91963477Y-95425465D01*
X91900218Y-95230776D01*
X91866503Y-95164607D01*
X91807287Y-95048390D01*
X91799556Y-95037749D01*
X91686971Y-94882786D01*
X91542217Y-94738032D01*
X91542212Y-94738028D01*
X91448051Y-94669616D01*
X91405385Y-94614286D01*
X91399406Y-94544673D01*
X91432012Y-94482878D01*
X91481933Y-94451592D01*
X91564117Y-94424359D01*
X91564124Y-94424356D01*
X91713345Y-94332315D01*
X91837315Y-94208345D01*
X91929356Y-94059124D01*
X91929358Y-94059119D01*
X91984505Y-93892697D01*
X91984506Y-93892690D01*
X91994999Y-93789986D01*
X91995000Y-93789973D01*
X91995000Y-93440000D01*
X91010686Y-93440000D01*
X91015080Y-93435606D01*
X91067741Y-93344394D01*
X91095000Y-93242661D01*
X91095000Y-93137339D01*
X91067741Y-93035606D01*
X91015080Y-92944394D01*
X91010686Y-92940000D01*
X91994999Y-92940000D01*
X91994999Y-92590028D01*
X91994998Y-92590013D01*
X91984505Y-92487302D01*
X91929358Y-92320880D01*
X91929356Y-92320875D01*
X91837315Y-92171654D01*
X91713345Y-92047684D01*
X91564124Y-91955643D01*
X91564119Y-91955641D01*
X91397697Y-91900494D01*
X91397690Y-91900493D01*
X91294986Y-91890000D01*
X90945000Y-91890000D01*
X90945000Y-92874314D01*
X90940606Y-92869920D01*
X90849394Y-92817259D01*
X90747661Y-92790000D01*
X90642339Y-92790000D01*
X90540606Y-92817259D01*
X90449394Y-92869920D01*
X90445000Y-92874314D01*
X90445000Y-91890000D01*
X90095028Y-91890000D01*
X90095012Y-91890001D01*
X89992302Y-91900494D01*
X89825880Y-91955641D01*
X89825875Y-91955643D01*
X89676654Y-92047684D01*
X89552684Y-92171654D01*
X89460643Y-92320875D01*
X89460641Y-92320880D01*
X89405494Y-92487302D01*
X89405493Y-92487309D01*
X89395000Y-92590013D01*
X89395000Y-92940000D01*
X90379314Y-92940000D01*
X90374920Y-92944394D01*
X90322259Y-93035606D01*
X90295000Y-93137339D01*
X90295000Y-93242661D01*
X90322259Y-93344394D01*
X90374920Y-93435606D01*
X90379314Y-93440000D01*
X89395001Y-93440000D01*
X89395001Y-93789986D01*
X89405494Y-93892697D01*
X89460641Y-94059119D01*
X89460643Y-94059124D01*
X89552684Y-94208345D01*
X89676654Y-94332315D01*
X89825875Y-94424356D01*
X89825882Y-94424359D01*
X89908067Y-94451592D01*
X89965512Y-94491364D01*
X89992336Y-94555880D01*
X89980021Y-94624656D01*
X89941949Y-94669616D01*
X89847787Y-94738028D01*
X89847782Y-94738032D01*
X89703028Y-94882786D01*
X89582715Y-95048386D01*
X89489781Y-95230776D01*
X89426522Y-95425465D01*
X89394500Y-95627648D01*
X89394500Y-95832351D01*
X89426522Y-96034534D01*
X89489781Y-96229223D01*
X89582715Y-96411613D01*
X89703028Y-96577213D01*
X89847786Y-96721971D01*
X90002749Y-96834556D01*
X90013390Y-96842287D01*
X90104840Y-96888883D01*
X90106080Y-96889515D01*
X90156876Y-96937490D01*
X90173671Y-97005311D01*
X90151134Y-97071446D01*
X90106080Y-97110485D01*
X90013386Y-97157715D01*
X89847786Y-97278028D01*
X89703028Y-97422786D01*
X89582715Y-97588385D01*
X89575883Y-97601795D01*
X89527909Y-97652591D01*
X89465398Y-97669500D01*
X86650940Y-97669500D01*
X86610019Y-97680464D01*
X86610019Y-97680465D01*
X86572751Y-97690451D01*
X86498214Y-97710423D01*
X86498209Y-97710426D01*
X86361290Y-97789475D01*
X86361282Y-97789481D01*
X86249478Y-97901286D01*
X82987582Y-101163181D01*
X82926259Y-101196666D01*
X82899901Y-101199500D01*
X81899998Y-101199500D01*
X81899980Y-101199501D01*
X81797203Y-101210000D01*
X81797200Y-101210001D01*
X81630668Y-101265185D01*
X81630663Y-101265187D01*
X81481342Y-101357289D01*
X81357289Y-101481342D01*
X81265187Y-101630663D01*
X81265186Y-101630666D01*
X81210001Y-101797203D01*
X81210001Y-101797204D01*
X81210000Y-101797204D01*
X81199500Y-101899983D01*
X79000500Y-101899983D01*
X79000500Y-85933713D01*
X81149500Y-85933713D01*
X81149500Y-86146287D01*
X81182754Y-86356243D01*
X81243394Y-86542874D01*
X81248444Y-86558414D01*
X81344951Y-86747820D01*
X81469890Y-86919786D01*
X81620213Y-87070109D01*
X81792179Y-87195048D01*
X81792181Y-87195049D01*
X81792184Y-87195051D01*
X81981588Y-87291557D01*
X82183757Y-87357246D01*
X82393713Y-87390500D01*
X82393714Y-87390500D01*
X82606286Y-87390500D01*
X82606287Y-87390500D01*
X82816243Y-87357246D01*
X83018412Y-87291557D01*
X83207816Y-87195051D01*
X83237432Y-87173534D01*
X83379786Y-87070109D01*
X83379788Y-87070106D01*
X83379792Y-87070104D01*
X83530104Y-86919792D01*
X83530106Y-86919788D01*
X83530109Y-86919786D01*
X83655048Y-86747820D01*
X83655047Y-86747820D01*
X83655051Y-86747816D01*
X83751557Y-86558412D01*
X83817246Y-86356243D01*
X83850500Y-86146287D01*
X83850500Y-85933713D01*
X83817246Y-85723757D01*
X83751557Y-85521588D01*
X83655051Y-85332184D01*
X83655049Y-85332181D01*
X83655048Y-85332179D01*
X83530109Y-85160213D01*
X83416181Y-85046285D01*
X83382696Y-84984962D01*
X83387680Y-84915270D01*
X83429552Y-84859337D01*
X83460529Y-84842422D01*
X83592086Y-84793354D01*
X83592093Y-84793350D01*
X83707187Y-84707190D01*
X83707190Y-84707187D01*
X83793350Y-84592093D01*
X83793354Y-84592086D01*
X83843596Y-84457379D01*
X83843598Y-84457372D01*
X83849999Y-84397844D01*
X83850000Y-84397827D01*
X83850000Y-83750000D01*
X82933012Y-83750000D01*
X82965925Y-83692993D01*
X83000000Y-83565826D01*
X83000000Y-83434174D01*
X82965925Y-83307007D01*
X82933012Y-83250000D01*
X83850000Y-83250000D01*
X83850000Y-82602172D01*
X83849999Y-82602155D01*
X83843598Y-82542627D01*
X83843596Y-82542620D01*
X83793354Y-82407913D01*
X83793350Y-82407906D01*
X83707190Y-82292812D01*
X83707187Y-82292809D01*
X83592093Y-82206649D01*
X83592086Y-82206645D01*
X83457379Y-82156403D01*
X83457372Y-82156401D01*
X83397844Y-82150000D01*
X82750000Y-82150000D01*
X82750000Y-83066988D01*
X82692993Y-83034075D01*
X82565826Y-83000000D01*
X82434174Y-83000000D01*
X82307007Y-83034075D01*
X82250000Y-83066988D01*
X82250000Y-82150000D01*
X81602155Y-82150000D01*
X81542627Y-82156401D01*
X81542620Y-82156403D01*
X81407913Y-82206645D01*
X81407906Y-82206649D01*
X81292812Y-82292809D01*
X81292809Y-82292812D01*
X81206649Y-82407906D01*
X81206645Y-82407913D01*
X81156403Y-82542620D01*
X81156401Y-82542627D01*
X81150000Y-82602155D01*
X81150000Y-83250000D01*
X82066988Y-83250000D01*
X82034075Y-83307007D01*
X82000000Y-83434174D01*
X82000000Y-83565826D01*
X82034075Y-83692993D01*
X82066988Y-83750000D01*
X81150000Y-83750000D01*
X81150000Y-84397844D01*
X81156401Y-84457372D01*
X81156403Y-84457379D01*
X81206645Y-84592086D01*
X81206649Y-84592093D01*
X81292809Y-84707187D01*
X81292812Y-84707190D01*
X81407906Y-84793350D01*
X81407913Y-84793354D01*
X81539470Y-84842422D01*
X81595404Y-84884293D01*
X81619821Y-84949758D01*
X81604969Y-85018031D01*
X81583819Y-85046285D01*
X81469889Y-85160215D01*
X81344951Y-85332179D01*
X81248444Y-85521585D01*
X81248443Y-85521587D01*
X81248443Y-85521588D01*
X81215598Y-85622672D01*
X81182753Y-85723760D01*
X81167343Y-85821055D01*
X81149500Y-85933713D01*
X79000500Y-85933713D01*
X79000500Y-79124500D01*
X79020185Y-79057461D01*
X79072989Y-79011706D01*
X79124500Y-79000500D01*
X109875500Y-79000500D01*
X109942539Y-79020185D01*
G37*
%TD.AperFunction*%
%TD*%
M02*
