%TF.GenerationSoftware,KiCad,Pcbnew,9.0.7*%
%TF.CreationDate,2026-01-10T14:03:11+05:30*%
%TF.ProjectId,first,66697273-742e-46b6-9963-61645f706362,rev?*%
%TF.SameCoordinates,Original*%
%TF.FileFunction,Copper,L2,Bot*%
%TF.FilePolarity,Positive*%
%FSLAX46Y46*%
G04 Gerber Fmt 4.6, Leading zero omitted, Abs format (unit mm)*
G04 Created by KiCad (PCBNEW 9.0.7) date 2026-01-10 14:03:11*
%MOMM*%
%LPD*%
G01*
G04 APERTURE LIST*
G04 Aperture macros list*
%AMRoundRect*
0 Rectangle with rounded corners*
0 $1 Rounding radius*
0 $2 $3 $4 $5 $6 $7 $8 $9 X,Y pos of 4 corners*
0 Add a 4 corners polygon primitive as box body*
4,1,4,$2,$3,$4,$5,$6,$7,$8,$9,$2,$3,0*
0 Add four circle primitives for the rounded corners*
1,1,$1+$1,$2,$3*
1,1,$1+$1,$4,$5*
1,1,$1+$1,$6,$7*
1,1,$1+$1,$8,$9*
0 Add four rect primitives between the rounded corners*
20,1,$1+$1,$2,$3,$4,$5,0*
20,1,$1+$1,$4,$5,$6,$7,0*
20,1,$1+$1,$6,$7,$8,$9,0*
20,1,$1+$1,$8,$9,$2,$3,0*%
G04 Aperture macros list end*
%TA.AperFunction,ComponentPad*%
%ADD10R,1.700000X1.700000*%
%TD*%
%TA.AperFunction,ComponentPad*%
%ADD11C,1.700000*%
%TD*%
%TA.AperFunction,ComponentPad*%
%ADD12C,1.600000*%
%TD*%
%TA.AperFunction,ComponentPad*%
%ADD13RoundRect,0.250000X-0.550000X-0.550000X0.550000X-0.550000X0.550000X0.550000X-0.550000X0.550000X0*%
%TD*%
%TA.AperFunction,ComponentPad*%
%ADD14C,2.000000*%
%TD*%
%TA.AperFunction,Conductor*%
%ADD15C,0.500000*%
%TD*%
G04 APERTURE END LIST*
D10*
%TO.P,BATTERY,1,1*%
%TO.N,GND*%
X82500000Y-83500000D03*
D11*
%TO.P,BATTERY,2,2*%
%TO.N,VCC*%
X82500000Y-86040000D03*
%TD*%
D10*
%TO.P,SENSE,1,1*%
%TO.N,Net-(R2-Pad2)*%
X106000000Y-82960000D03*
D11*
%TO.P,SENSE,2,2*%
%TO.N,/TR*%
X106000000Y-85500000D03*
%TD*%
D12*
%TO.P,R2,1*%
%TO.N,/DIS*%
X88150000Y-87750000D03*
%TO.P,R2,2*%
%TO.N,Net-(R2-Pad2)*%
X100850000Y-87750000D03*
%TD*%
%TO.P,R1,1*%
%TO.N,VCC*%
X88150000Y-83000000D03*
%TO.P,R1,2*%
%TO.N,/DIS*%
X100850000Y-83000000D03*
%TD*%
%TO.P,C2,2*%
%TO.N,Net-(C2-Pad2)*%
X86000000Y-102500000D03*
D13*
%TO.P,C2,1*%
%TO.N,/OUT*%
X82500000Y-102500000D03*
%TD*%
D11*
%TO.P,BUZZER,2,2*%
%TO.N,GND*%
X96000000Y-106500000D03*
D10*
%TO.P,BUZZER,1,1*%
%TO.N,Net-(C2-Pad2)*%
X93460000Y-106500000D03*
%TD*%
D14*
%TO.P,C1,2*%
%TO.N,GND*%
X106000000Y-97500000D03*
%TO.P,C1,1*%
%TO.N,/TR*%
X106000000Y-107500000D03*
%TD*%
D12*
%TO.P,U1,8,VCC*%
%TO.N,VCC*%
X98315000Y-93190000D03*
%TO.P,U1,7,DISCH*%
%TO.N,/DIS*%
X98315000Y-95730000D03*
%TO.P,U1,6,THRES*%
%TO.N,/TR*%
X98315000Y-98270000D03*
%TO.P,U1,5,CONT*%
%TO.N,unconnected-(U1-CONT-Pad5)*%
X98315000Y-100810000D03*
%TO.P,U1,4,~{RST}*%
%TO.N,VCC*%
X90695000Y-100810000D03*
%TO.P,U1,3,OUT*%
%TO.N,/OUT*%
X90695000Y-98270000D03*
%TO.P,U1,2,TRIG*%
%TO.N,/TR*%
X90695000Y-95730000D03*
D13*
%TO.P,U1,1,GND*%
%TO.N,GND*%
X90695000Y-93190000D03*
%TD*%
D15*
%TO.N,VCC*%
X85540000Y-83000000D02*
X88150000Y-83000000D01*
X82500000Y-86040000D02*
X85540000Y-83000000D01*
X98315000Y-93190000D02*
X90695000Y-100810000D01*
%TO.N,GND*%
X105000000Y-97500000D02*
X106000000Y-97500000D01*
X96000000Y-106500000D02*
X105000000Y-97500000D01*
X100000000Y-91000000D02*
X100000000Y-91500000D01*
X92885000Y-91000000D02*
X100000000Y-91000000D01*
X90695000Y-93190000D02*
X92885000Y-91000000D01*
X100000000Y-91500000D02*
X106000000Y-97500000D01*
%TD*%
%TA.AperFunction,Conductor*%
%TO.N,GND*%
G36*
X109942539Y-79020185D02*
G01*
X109988294Y-79072989D01*
X109999500Y-79124500D01*
X109999500Y-109875500D01*
X109979815Y-109942539D01*
X109927011Y-109988294D01*
X109875500Y-109999500D01*
X79124500Y-109999500D01*
X79057461Y-109979815D01*
X79011706Y-109927011D01*
X79000500Y-109875500D01*
X79000500Y-105602135D01*
X92109500Y-105602135D01*
X92109500Y-107397870D01*
X92109501Y-107397876D01*
X92115908Y-107457483D01*
X92166202Y-107592328D01*
X92166206Y-107592335D01*
X92252452Y-107707544D01*
X92252455Y-107707547D01*
X92367664Y-107793793D01*
X92367671Y-107793797D01*
X92502517Y-107844091D01*
X92502516Y-107844091D01*
X92509444Y-107844835D01*
X92562127Y-107850500D01*
X94357872Y-107850499D01*
X94417483Y-107844091D01*
X94552331Y-107793796D01*
X94667546Y-107707546D01*
X94753796Y-107592331D01*
X94804091Y-107457483D01*
X94810500Y-107397873D01*
X94810499Y-107373979D01*
X94813330Y-107360963D01*
X94823940Y-107341525D01*
X94830179Y-107320275D01*
X94846803Y-107299643D01*
X94846808Y-107299636D01*
X94846811Y-107299634D01*
X94846818Y-107299626D01*
X95517037Y-106629408D01*
X95534075Y-106692993D01*
X95599901Y-106807007D01*
X95692993Y-106900099D01*
X95807007Y-106965925D01*
X95870590Y-106982962D01*
X95238282Y-107615269D01*
X95238282Y-107615270D01*
X95292449Y-107654624D01*
X95481782Y-107751095D01*
X95683870Y-107816757D01*
X95893754Y-107850000D01*
X96106246Y-107850000D01*
X96316127Y-107816757D01*
X96316130Y-107816757D01*
X96518217Y-107751095D01*
X96707554Y-107654622D01*
X96761716Y-107615270D01*
X96761717Y-107615270D01*
X96528349Y-107381902D01*
X104499500Y-107381902D01*
X104499500Y-107618097D01*
X104536446Y-107851368D01*
X104609433Y-108075996D01*
X104716657Y-108286433D01*
X104855483Y-108477510D01*
X105022490Y-108644517D01*
X105213567Y-108783343D01*
X105312991Y-108834002D01*
X105424003Y-108890566D01*
X105424005Y-108890566D01*
X105424008Y-108890568D01*
X105544412Y-108929689D01*
X105648631Y-108963553D01*
X105881903Y-109000500D01*
X105881908Y-109000500D01*
X106118097Y-109000500D01*
X106351368Y-108963553D01*
X106575992Y-108890568D01*
X106786433Y-108783343D01*
X106977510Y-108644517D01*
X107144517Y-108477510D01*
X107283343Y-108286433D01*
X107390568Y-108075992D01*
X107463553Y-107851368D01*
X107472671Y-107793797D01*
X107500500Y-107618097D01*
X107500500Y-107381902D01*
X107463553Y-107148631D01*
X107415259Y-107000000D01*
X107390568Y-106924008D01*
X107390566Y-106924005D01*
X107390566Y-106924003D01*
X107283342Y-106713566D01*
X107268395Y-106692993D01*
X107144517Y-106522490D01*
X106977510Y-106355483D01*
X106786433Y-106216657D01*
X106722089Y-106183872D01*
X106575996Y-106109433D01*
X106351368Y-106036446D01*
X106118097Y-105999500D01*
X106118092Y-105999500D01*
X105881908Y-105999500D01*
X105881903Y-105999500D01*
X105648631Y-106036446D01*
X105424003Y-106109433D01*
X105213566Y-106216657D01*
X105104550Y-106295862D01*
X105022490Y-106355483D01*
X105022488Y-106355485D01*
X105022487Y-106355485D01*
X104855485Y-106522487D01*
X104855485Y-106522488D01*
X104855483Y-106522490D01*
X104795862Y-106604550D01*
X104716657Y-106713566D01*
X104609433Y-106924003D01*
X104536446Y-107148631D01*
X104499500Y-107381902D01*
X96528349Y-107381902D01*
X96129408Y-106982962D01*
X96192993Y-106965925D01*
X96307007Y-106900099D01*
X96400099Y-106807007D01*
X96465925Y-106692993D01*
X96482962Y-106629409D01*
X97115270Y-107261717D01*
X97115270Y-107261716D01*
X97154622Y-107207554D01*
X97251095Y-107018217D01*
X97316757Y-106816130D01*
X97316757Y-106816127D01*
X97350000Y-106606246D01*
X97350000Y-106393753D01*
X97316757Y-106183872D01*
X97316757Y-106183869D01*
X97251095Y-105981782D01*
X97154624Y-105792449D01*
X97115270Y-105738282D01*
X97115269Y-105738282D01*
X96482962Y-106370590D01*
X96465925Y-106307007D01*
X96400099Y-106192993D01*
X96307007Y-106099901D01*
X96192993Y-106034075D01*
X96129409Y-106017037D01*
X96761716Y-105384728D01*
X96707550Y-105345375D01*
X96518217Y-105248904D01*
X96316129Y-105183242D01*
X96106246Y-105150000D01*
X95893754Y-105150000D01*
X95683872Y-105183242D01*
X95683869Y-105183242D01*
X95481782Y-105248904D01*
X95292439Y-105345380D01*
X95238282Y-105384727D01*
X95238282Y-105384728D01*
X95870591Y-106017037D01*
X95807007Y-106034075D01*
X95692993Y-106099901D01*
X95599901Y-106192993D01*
X95534075Y-106307007D01*
X95517037Y-106370591D01*
X94846818Y-105700372D01*
X94813333Y-105639049D01*
X94813330Y-105639036D01*
X94810499Y-105626015D01*
X94810499Y-105602128D01*
X94804091Y-105542517D01*
X94775926Y-105467002D01*
X94753798Y-105407673D01*
X94753793Y-105407664D01*
X94667547Y-105292455D01*
X94667544Y-105292452D01*
X94552335Y-105206206D01*
X94552328Y-105206202D01*
X94417482Y-105155908D01*
X94417483Y-105155908D01*
X94357883Y-105149501D01*
X94357881Y-105149500D01*
X94357873Y-105149500D01*
X94357864Y-105149500D01*
X92562129Y-105149500D01*
X92562123Y-105149501D01*
X92502516Y-105155908D01*
X92367671Y-105206202D01*
X92367664Y-105206206D01*
X92252455Y-105292452D01*
X92252452Y-105292455D01*
X92166206Y-105407664D01*
X92166202Y-105407671D01*
X92115908Y-105542517D01*
X92109501Y-105602116D01*
X92109500Y-105602135D01*
X79000500Y-105602135D01*
X79000500Y-101899983D01*
X81199500Y-101899983D01*
X81199500Y-103100001D01*
X81199501Y-103100018D01*
X81210000Y-103202796D01*
X81210001Y-103202799D01*
X81257856Y-103347213D01*
X81265186Y-103369334D01*
X81357288Y-103518656D01*
X81481344Y-103642712D01*
X81630666Y-103734814D01*
X81797203Y-103789999D01*
X81899991Y-103800500D01*
X83100008Y-103800499D01*
X83202797Y-103789999D01*
X83369334Y-103734814D01*
X83518656Y-103642712D01*
X83642712Y-103518656D01*
X83734814Y-103369334D01*
X83789999Y-103202797D01*
X83800500Y-103100009D01*
X83800499Y-102397648D01*
X84699500Y-102397648D01*
X84699500Y-102602351D01*
X84731522Y-102804534D01*
X84794781Y-102999223D01*
X84887715Y-103181613D01*
X85008028Y-103347213D01*
X85152786Y-103491971D01*
X85307749Y-103604556D01*
X85318390Y-103612287D01*
X85434607Y-103671503D01*
X85500776Y-103705218D01*
X85500778Y-103705218D01*
X85500781Y-103705220D01*
X85591856Y-103734812D01*
X85695465Y-103768477D01*
X85796557Y-103784488D01*
X85897648Y-103800500D01*
X85897649Y-103800500D01*
X86102351Y-103800500D01*
X86102352Y-103800500D01*
X86304534Y-103768477D01*
X86499219Y-103705220D01*
X86681610Y-103612287D01*
X86810482Y-103518657D01*
X86847213Y-103491971D01*
X86847215Y-103491968D01*
X86847219Y-103491966D01*
X86991966Y-103347219D01*
X86991968Y-103347215D01*
X86991971Y-103347213D01*
X87096892Y-103202799D01*
X87112287Y-103181610D01*
X87205220Y-102999219D01*
X87268477Y-102804534D01*
X87300500Y-102602352D01*
X87300500Y-102397648D01*
X87268477Y-102195466D01*
X87205220Y-102000781D01*
X87205218Y-102000778D01*
X87205218Y-102000776D01*
X87153865Y-101899991D01*
X87112287Y-101818390D01*
X87096892Y-101797200D01*
X86991971Y-101652786D01*
X86847213Y-101508028D01*
X86681613Y-101387715D01*
X86681612Y-101387714D01*
X86681610Y-101387713D01*
X86621898Y-101357288D01*
X86499223Y-101294781D01*
X86304534Y-101231522D01*
X86129995Y-101203878D01*
X86102352Y-101199500D01*
X85897648Y-101199500D01*
X85873329Y-101203351D01*
X85695465Y-101231522D01*
X85500776Y-101294781D01*
X85318386Y-101387715D01*
X85152786Y-101508028D01*
X85008028Y-101652786D01*
X84887715Y-101818386D01*
X84794781Y-102000776D01*
X84731522Y-102195465D01*
X84699500Y-102397648D01*
X83800499Y-102397648D01*
X83800499Y-101899992D01*
X83789999Y-101797203D01*
X83734814Y-101630666D01*
X83642712Y-101481344D01*
X83518656Y-101357288D01*
X83369334Y-101265186D01*
X83202797Y-101210001D01*
X83202795Y-101210000D01*
X83100010Y-101199500D01*
X81899998Y-101199500D01*
X81899981Y-101199501D01*
X81797203Y-101210000D01*
X81797200Y-101210001D01*
X81630668Y-101265185D01*
X81630663Y-101265187D01*
X81481342Y-101357289D01*
X81357289Y-101481342D01*
X81265187Y-101630663D01*
X81265186Y-101630666D01*
X81210001Y-101797203D01*
X81210001Y-101797204D01*
X81210000Y-101797204D01*
X81199500Y-101899983D01*
X79000500Y-101899983D01*
X79000500Y-95627648D01*
X89394500Y-95627648D01*
X89394500Y-95832351D01*
X89426522Y-96034534D01*
X89489781Y-96229223D01*
X89582715Y-96411613D01*
X89703028Y-96577213D01*
X89847786Y-96721971D01*
X90002749Y-96834556D01*
X90013390Y-96842287D01*
X90104840Y-96888883D01*
X90106080Y-96889515D01*
X90156876Y-96937490D01*
X90173671Y-97005311D01*
X90151134Y-97071446D01*
X90106080Y-97110485D01*
X90013386Y-97157715D01*
X89847786Y-97278028D01*
X89703028Y-97422786D01*
X89582715Y-97588386D01*
X89489781Y-97770776D01*
X89426522Y-97965465D01*
X89394500Y-98167648D01*
X89394500Y-98372351D01*
X89426522Y-98574534D01*
X89489781Y-98769223D01*
X89582715Y-98951613D01*
X89703028Y-99117213D01*
X89847786Y-99261971D01*
X90002749Y-99374556D01*
X90013390Y-99382287D01*
X90104840Y-99428883D01*
X90106080Y-99429515D01*
X90156876Y-99477490D01*
X90173671Y-99545311D01*
X90151134Y-99611446D01*
X90106080Y-99650485D01*
X90013386Y-99697715D01*
X89847786Y-99818028D01*
X89703028Y-99962786D01*
X89582715Y-100128386D01*
X89489781Y-100310776D01*
X89426522Y-100505465D01*
X89394500Y-100707648D01*
X89394500Y-100912351D01*
X89426522Y-101114534D01*
X89489781Y-101309223D01*
X89553691Y-101434653D01*
X89577482Y-101481344D01*
X89582715Y-101491613D01*
X89703028Y-101657213D01*
X89847786Y-101801971D01*
X90002749Y-101914556D01*
X90013390Y-101922287D01*
X90129607Y-101981503D01*
X90195776Y-102015218D01*
X90195778Y-102015218D01*
X90195781Y-102015220D01*
X90300137Y-102049127D01*
X90390465Y-102078477D01*
X90491557Y-102094488D01*
X90592648Y-102110500D01*
X90592649Y-102110500D01*
X90797351Y-102110500D01*
X90797352Y-102110500D01*
X90999534Y-102078477D01*
X91194219Y-102015220D01*
X91376610Y-101922287D01*
X91469590Y-101854732D01*
X91542213Y-101801971D01*
X91542215Y-101801968D01*
X91542219Y-101801966D01*
X91686966Y-101657219D01*
X91686968Y-101657215D01*
X91686971Y-101657213D01*
X91795354Y-101508034D01*
X91807287Y-101491610D01*
X91900220Y-101309219D01*
X91963477Y-101114534D01*
X91995500Y-100912352D01*
X91995500Y-100707648D01*
X91986681Y-100651971D01*
X91995635Y-100582679D01*
X92021470Y-100544895D01*
X96804067Y-95762298D01*
X96865388Y-95728815D01*
X96935080Y-95733799D01*
X96991013Y-95775671D01*
X97014219Y-95830582D01*
X97046523Y-96034535D01*
X97109781Y-96229223D01*
X97202715Y-96411613D01*
X97323028Y-96577213D01*
X97467786Y-96721971D01*
X97622749Y-96834556D01*
X97633390Y-96842287D01*
X97724840Y-96888883D01*
X97726080Y-96889515D01*
X97776876Y-96937490D01*
X97793671Y-97005311D01*
X97771134Y-97071446D01*
X97726080Y-97110485D01*
X97633386Y-97157715D01*
X97467786Y-97278028D01*
X97323028Y-97422786D01*
X97202715Y-97588386D01*
X97109781Y-97770776D01*
X97046522Y-97965465D01*
X97014500Y-98167648D01*
X97014500Y-98372351D01*
X97046522Y-98574534D01*
X97109781Y-98769223D01*
X97202715Y-98951613D01*
X97323028Y-99117213D01*
X97467786Y-99261971D01*
X97622749Y-99374556D01*
X97633390Y-99382287D01*
X97724840Y-99428883D01*
X97726080Y-99429515D01*
X97776876Y-99477490D01*
X97793671Y-99545311D01*
X97771134Y-99611446D01*
X97726080Y-99650485D01*
X97633386Y-99697715D01*
X97467786Y-99818028D01*
X97323028Y-99962786D01*
X97202715Y-100128386D01*
X97109781Y-100310776D01*
X97046522Y-100505465D01*
X97014500Y-100707648D01*
X97014500Y-100912351D01*
X97046522Y-101114534D01*
X97109781Y-101309223D01*
X97173691Y-101434653D01*
X97197482Y-101481344D01*
X97202715Y-101491613D01*
X97323028Y-101657213D01*
X97467786Y-101801971D01*
X97622749Y-101914556D01*
X97633390Y-101922287D01*
X97749607Y-101981503D01*
X97815776Y-102015218D01*
X97815778Y-102015218D01*
X97815781Y-102015220D01*
X97920137Y-102049127D01*
X98010465Y-102078477D01*
X98111557Y-102094488D01*
X98212648Y-102110500D01*
X98212649Y-102110500D01*
X98417351Y-102110500D01*
X98417352Y-102110500D01*
X98619534Y-102078477D01*
X98814219Y-102015220D01*
X98996610Y-101922287D01*
X99089590Y-101854732D01*
X99162213Y-101801971D01*
X99162215Y-101801968D01*
X99162219Y-101801966D01*
X99306966Y-101657219D01*
X99306968Y-101657215D01*
X99306971Y-101657213D01*
X99415354Y-101508034D01*
X99427287Y-101491610D01*
X99520220Y-101309219D01*
X99583477Y-101114534D01*
X99615500Y-100912352D01*
X99615500Y-100707648D01*
X99583477Y-100505466D01*
X99520220Y-100310781D01*
X99520218Y-100310778D01*
X99520218Y-100310776D01*
X99486503Y-100244607D01*
X99427287Y-100128390D01*
X99419556Y-100117749D01*
X99306971Y-99962786D01*
X99162213Y-99818028D01*
X98996614Y-99697715D01*
X98990006Y-99694348D01*
X98903917Y-99650483D01*
X98853123Y-99602511D01*
X98836328Y-99534690D01*
X98858865Y-99468555D01*
X98903917Y-99429516D01*
X98996610Y-99382287D01*
X99017770Y-99366913D01*
X99162213Y-99261971D01*
X99162215Y-99261968D01*
X99162219Y-99261966D01*
X99306966Y-99117219D01*
X99306968Y-99117215D01*
X99306971Y-99117213D01*
X99392130Y-99000000D01*
X99427287Y-98951610D01*
X99520220Y-98769219D01*
X99583477Y-98574534D01*
X99615500Y-98372352D01*
X99615500Y-98167648D01*
X99583477Y-97965466D01*
X99520220Y-97770781D01*
X99520218Y-97770778D01*
X99520218Y-97770776D01*
X99480585Y-97692993D01*
X99427287Y-97588390D01*
X99363069Y-97500001D01*
X99326713Y-97449960D01*
X99326712Y-97449959D01*
X99306969Y-97422784D01*
X99266132Y-97381947D01*
X104500000Y-97381947D01*
X104500000Y-97618052D01*
X104536934Y-97851247D01*
X104609897Y-98075802D01*
X104717087Y-98286174D01*
X104777338Y-98369104D01*
X104777340Y-98369105D01*
X105517037Y-97629408D01*
X105534075Y-97692993D01*
X105599901Y-97807007D01*
X105692993Y-97900099D01*
X105807007Y-97965925D01*
X105870590Y-97982962D01*
X105130893Y-98722658D01*
X105213828Y-98782914D01*
X105424197Y-98890102D01*
X105648752Y-98963065D01*
X105648751Y-98963065D01*
X105881948Y-99000000D01*
X106118052Y-99000000D01*
X106351247Y-98963065D01*
X106575802Y-98890102D01*
X106786163Y-98782918D01*
X106786169Y-98782914D01*
X106869104Y-98722658D01*
X106869105Y-98722658D01*
X106129408Y-97982962D01*
X106192993Y-97965925D01*
X106307007Y-97900099D01*
X106400099Y-97807007D01*
X106465925Y-97692993D01*
X106482962Y-97629409D01*
X107222658Y-98369105D01*
X107222658Y-98369104D01*
X107282914Y-98286169D01*
X107282918Y-98286163D01*
X107390102Y-98075802D01*
X107463065Y-97851247D01*
X107500000Y-97618052D01*
X107500000Y-97381947D01*
X107463065Y-97148752D01*
X107390102Y-96924197D01*
X107282914Y-96713828D01*
X107222658Y-96630894D01*
X107222658Y-96630893D01*
X106482962Y-97370590D01*
X106465925Y-97307007D01*
X106400099Y-97192993D01*
X106307007Y-97099901D01*
X106192993Y-97034075D01*
X106129409Y-97017037D01*
X106869105Y-96277340D01*
X106869104Y-96277338D01*
X106786174Y-96217087D01*
X106575802Y-96109897D01*
X106351247Y-96036934D01*
X106351248Y-96036934D01*
X106118052Y-96000000D01*
X105881948Y-96000000D01*
X105648752Y-96036934D01*
X105424197Y-96109897D01*
X105213830Y-96217084D01*
X105130894Y-96277340D01*
X105870591Y-97017037D01*
X105807007Y-97034075D01*
X105692993Y-97099901D01*
X105599901Y-97192993D01*
X105534075Y-97307007D01*
X105517037Y-97370591D01*
X104777340Y-96630894D01*
X104717084Y-96713830D01*
X104609897Y-96924197D01*
X104536934Y-97148752D01*
X104500000Y-97381947D01*
X99266132Y-97381947D01*
X99162213Y-97278028D01*
X98996614Y-97157715D01*
X98974497Y-97146446D01*
X98903917Y-97110483D01*
X98853123Y-97062511D01*
X98836328Y-96994690D01*
X98858865Y-96928555D01*
X98903917Y-96889516D01*
X98996610Y-96842287D01*
X99017770Y-96826913D01*
X99162213Y-96721971D01*
X99162215Y-96721968D01*
X99162219Y-96721966D01*
X99306966Y-96577219D01*
X99306968Y-96577215D01*
X99306971Y-96577213D01*
X99427284Y-96411614D01*
X99427285Y-96411613D01*
X99427287Y-96411610D01*
X99520220Y-96229219D01*
X99583477Y-96034534D01*
X99615500Y-95832352D01*
X99615500Y-95627648D01*
X99583477Y-95425466D01*
X99520220Y-95230781D01*
X99520218Y-95230778D01*
X99520218Y-95230776D01*
X99486503Y-95164607D01*
X99427287Y-95048390D01*
X99419556Y-95037749D01*
X99306971Y-94882786D01*
X99162213Y-94738028D01*
X98996614Y-94617715D01*
X98989884Y-94614286D01*
X98903917Y-94570483D01*
X98853123Y-94522511D01*
X98836328Y-94454690D01*
X98858865Y-94388555D01*
X98903917Y-94349516D01*
X98996610Y-94302287D01*
X99017770Y-94286913D01*
X99162213Y-94181971D01*
X99162215Y-94181968D01*
X99162219Y-94181966D01*
X99306966Y-94037219D01*
X99306968Y-94037215D01*
X99306971Y-94037213D01*
X99359732Y-93964590D01*
X99427287Y-93871610D01*
X99520220Y-93689219D01*
X99583477Y-93494534D01*
X99615500Y-93292352D01*
X99615500Y-93087648D01*
X99607257Y-93035606D01*
X99583477Y-92885465D01*
X99520218Y-92690776D01*
X99486503Y-92624607D01*
X99427287Y-92508390D01*
X99411966Y-92487302D01*
X99306971Y-92342786D01*
X99162213Y-92198028D01*
X98996613Y-92077715D01*
X98996612Y-92077714D01*
X98996610Y-92077713D01*
X98937675Y-92047684D01*
X98814223Y-91984781D01*
X98619534Y-91921522D01*
X98444995Y-91893878D01*
X98417352Y-91889500D01*
X98212648Y-91889500D01*
X98188329Y-91893351D01*
X98010465Y-91921522D01*
X97815776Y-91984781D01*
X97633386Y-92077715D01*
X97467786Y-92198028D01*
X97323028Y-92342786D01*
X97202715Y-92508386D01*
X97109781Y-92690776D01*
X97046522Y-92885465D01*
X97014500Y-93087648D01*
X97014500Y-93292351D01*
X97023318Y-93348026D01*
X97014363Y-93417320D01*
X96988526Y-93455105D01*
X92205933Y-98237697D01*
X92144610Y-98271182D01*
X92074918Y-98266198D01*
X92018985Y-98224326D01*
X91995779Y-98169414D01*
X91995500Y-98167652D01*
X91995500Y-98167648D01*
X91963477Y-97965466D01*
X91900220Y-97770781D01*
X91900218Y-97770778D01*
X91900218Y-97770776D01*
X91860585Y-97692993D01*
X91807287Y-97588390D01*
X91799556Y-97577749D01*
X91686971Y-97422786D01*
X91542213Y-97278028D01*
X91376614Y-97157715D01*
X91354497Y-97146446D01*
X91283917Y-97110483D01*
X91233123Y-97062511D01*
X91216328Y-96994690D01*
X91238865Y-96928555D01*
X91283917Y-96889516D01*
X91376610Y-96842287D01*
X91397770Y-96826913D01*
X91542213Y-96721971D01*
X91542215Y-96721968D01*
X91542219Y-96721966D01*
X91686966Y-96577219D01*
X91686968Y-96577215D01*
X91686971Y-96577213D01*
X91739732Y-96504590D01*
X91807287Y-96411610D01*
X91900220Y-96229219D01*
X91963477Y-96034534D01*
X91995500Y-95832352D01*
X91995500Y-95627648D01*
X91963477Y-95425466D01*
X91900220Y-95230781D01*
X91900218Y-95230778D01*
X91900218Y-95230776D01*
X91866503Y-95164607D01*
X91807287Y-95048390D01*
X91799556Y-95037749D01*
X91686971Y-94882786D01*
X91542217Y-94738032D01*
X91542212Y-94738028D01*
X91448051Y-94669616D01*
X91405385Y-94614286D01*
X91399406Y-94544673D01*
X91432012Y-94482878D01*
X91481933Y-94451592D01*
X91564117Y-94424359D01*
X91564124Y-94424356D01*
X91713345Y-94332315D01*
X91837315Y-94208345D01*
X91929356Y-94059124D01*
X91929358Y-94059119D01*
X91984505Y-93892697D01*
X91984506Y-93892690D01*
X91994999Y-93789986D01*
X91995000Y-93789973D01*
X91995000Y-93440000D01*
X91010686Y-93440000D01*
X91015080Y-93435606D01*
X91067741Y-93344394D01*
X91095000Y-93242661D01*
X91095000Y-93137339D01*
X91067741Y-93035606D01*
X91015080Y-92944394D01*
X91010686Y-92940000D01*
X91994999Y-92940000D01*
X91994999Y-92590028D01*
X91994998Y-92590013D01*
X91984505Y-92487302D01*
X91929358Y-92320880D01*
X91929356Y-92320875D01*
X91837315Y-92171654D01*
X91713345Y-92047684D01*
X91564124Y-91955643D01*
X91564119Y-91955641D01*
X91397697Y-91900494D01*
X91397690Y-91900493D01*
X91294986Y-91890000D01*
X90945000Y-91890000D01*
X90945000Y-92874314D01*
X90940606Y-92869920D01*
X90849394Y-92817259D01*
X90747661Y-92790000D01*
X90642339Y-92790000D01*
X90540606Y-92817259D01*
X90449394Y-92869920D01*
X90445000Y-92874314D01*
X90445000Y-91890000D01*
X90095028Y-91890000D01*
X90095012Y-91890001D01*
X89992302Y-91900494D01*
X89825880Y-91955641D01*
X89825875Y-91955643D01*
X89676654Y-92047684D01*
X89552684Y-92171654D01*
X89460643Y-92320875D01*
X89460641Y-92320880D01*
X89405494Y-92487302D01*
X89405493Y-92487309D01*
X89395000Y-92590013D01*
X89395000Y-92940000D01*
X90379314Y-92940000D01*
X90374920Y-92944394D01*
X90322259Y-93035606D01*
X90295000Y-93137339D01*
X90295000Y-93242661D01*
X90322259Y-93344394D01*
X90374920Y-93435606D01*
X90379314Y-93440000D01*
X89395001Y-93440000D01*
X89395001Y-93789986D01*
X89405494Y-93892697D01*
X89460641Y-94059119D01*
X89460643Y-94059124D01*
X89552684Y-94208345D01*
X89676654Y-94332315D01*
X89825875Y-94424356D01*
X89825882Y-94424359D01*
X89908067Y-94451592D01*
X89965512Y-94491364D01*
X89992336Y-94555880D01*
X89980021Y-94624656D01*
X89941949Y-94669616D01*
X89847787Y-94738028D01*
X89847782Y-94738032D01*
X89703028Y-94882786D01*
X89582715Y-95048386D01*
X89489781Y-95230776D01*
X89426522Y-95425465D01*
X89394500Y-95627648D01*
X79000500Y-95627648D01*
X79000500Y-87647648D01*
X86849500Y-87647648D01*
X86849500Y-87852351D01*
X86881522Y-88054534D01*
X86944781Y-88249223D01*
X87037715Y-88431613D01*
X87158028Y-88597213D01*
X87302786Y-88741971D01*
X87457749Y-88854556D01*
X87468390Y-88862287D01*
X87584607Y-88921503D01*
X87650776Y-88955218D01*
X87650778Y-88955218D01*
X87650781Y-88955220D01*
X87755137Y-88989127D01*
X87845465Y-89018477D01*
X87946557Y-89034488D01*
X88047648Y-89050500D01*
X88047649Y-89050500D01*
X88252351Y-89050500D01*
X88252352Y-89050500D01*
X88454534Y-89018477D01*
X88649219Y-88955220D01*
X88831610Y-88862287D01*
X88924590Y-88794732D01*
X88997213Y-88741971D01*
X88997215Y-88741968D01*
X88997219Y-88741966D01*
X89141966Y-88597219D01*
X89141968Y-88597215D01*
X89141971Y-88597213D01*
X89194732Y-88524590D01*
X89262287Y-88431610D01*
X89355220Y-88249219D01*
X89418477Y-88054534D01*
X89450500Y-87852352D01*
X89450500Y-87647648D01*
X99549500Y-87647648D01*
X99549500Y-87852351D01*
X99581522Y-88054534D01*
X99644781Y-88249223D01*
X99737715Y-88431613D01*
X99858028Y-88597213D01*
X100002786Y-88741971D01*
X100157749Y-88854556D01*
X100168390Y-88862287D01*
X100284607Y-88921503D01*
X100350776Y-88955218D01*
X100350778Y-88955218D01*
X100350781Y-88955220D01*
X100455137Y-88989127D01*
X100545465Y-89018477D01*
X100646557Y-89034488D01*
X100747648Y-89050500D01*
X100747649Y-89050500D01*
X100952351Y-89050500D01*
X100952352Y-89050500D01*
X101154534Y-89018477D01*
X101349219Y-88955220D01*
X101531610Y-88862287D01*
X101624590Y-88794732D01*
X101697213Y-88741971D01*
X101697215Y-88741968D01*
X101697219Y-88741966D01*
X101841966Y-88597219D01*
X101841968Y-88597215D01*
X101841971Y-88597213D01*
X101894732Y-88524590D01*
X101962287Y-88431610D01*
X102055220Y-88249219D01*
X102118477Y-88054534D01*
X102150500Y-87852352D01*
X102150500Y-87647648D01*
X102118477Y-87445466D01*
X102100617Y-87390500D01*
X102055218Y-87250776D01*
X102021503Y-87184607D01*
X101962287Y-87068390D01*
X101954556Y-87057749D01*
X101841971Y-86902786D01*
X101697213Y-86758028D01*
X101531613Y-86637715D01*
X101531612Y-86637714D01*
X101531610Y-86637713D01*
X101474653Y-86608691D01*
X101349223Y-86544781D01*
X101154534Y-86481522D01*
X100979995Y-86453878D01*
X100952352Y-86449500D01*
X100747648Y-86449500D01*
X100723329Y-86453351D01*
X100545465Y-86481522D01*
X100350776Y-86544781D01*
X100168386Y-86637715D01*
X100002786Y-86758028D01*
X99858028Y-86902786D01*
X99737715Y-87068386D01*
X99644781Y-87250776D01*
X99581522Y-87445465D01*
X99549500Y-87647648D01*
X89450500Y-87647648D01*
X89418477Y-87445466D01*
X89400617Y-87390500D01*
X89355218Y-87250776D01*
X89321503Y-87184607D01*
X89262287Y-87068390D01*
X89254556Y-87057749D01*
X89141971Y-86902786D01*
X88997213Y-86758028D01*
X88831613Y-86637715D01*
X88831612Y-86637714D01*
X88831610Y-86637713D01*
X88774653Y-86608691D01*
X88649223Y-86544781D01*
X88454534Y-86481522D01*
X88279995Y-86453878D01*
X88252352Y-86449500D01*
X88047648Y-86449500D01*
X88023329Y-86453351D01*
X87845465Y-86481522D01*
X87650776Y-86544781D01*
X87468386Y-86637715D01*
X87302786Y-86758028D01*
X87158028Y-86902786D01*
X87037715Y-87068386D01*
X86944781Y-87250776D01*
X86881522Y-87445465D01*
X86849500Y-87647648D01*
X79000500Y-87647648D01*
X79000500Y-85933713D01*
X81149500Y-85933713D01*
X81149500Y-86146287D01*
X81182754Y-86356243D01*
X81213055Y-86449500D01*
X81248444Y-86558414D01*
X81344951Y-86747820D01*
X81469890Y-86919786D01*
X81620213Y-87070109D01*
X81792179Y-87195048D01*
X81792181Y-87195049D01*
X81792184Y-87195051D01*
X81981588Y-87291557D01*
X82183757Y-87357246D01*
X82393713Y-87390500D01*
X82393714Y-87390500D01*
X82606286Y-87390500D01*
X82606287Y-87390500D01*
X82816243Y-87357246D01*
X83018412Y-87291557D01*
X83207816Y-87195051D01*
X83229789Y-87179086D01*
X83379786Y-87070109D01*
X83379788Y-87070106D01*
X83379792Y-87070104D01*
X83530104Y-86919792D01*
X83530106Y-86919788D01*
X83530109Y-86919786D01*
X83655048Y-86747820D01*
X83655047Y-86747820D01*
X83655051Y-86747816D01*
X83751557Y-86558412D01*
X83817246Y-86356243D01*
X83850500Y-86146287D01*
X83850500Y-85933713D01*
X83835382Y-85838268D01*
X83844336Y-85768979D01*
X83870171Y-85731195D01*
X85814548Y-83786819D01*
X85875871Y-83753334D01*
X85902229Y-83750500D01*
X87024582Y-83750500D01*
X87091621Y-83770185D01*
X87124900Y-83801615D01*
X87158028Y-83847212D01*
X87158032Y-83847217D01*
X87302786Y-83991971D01*
X87385872Y-84052335D01*
X87468390Y-84112287D01*
X87576838Y-84167544D01*
X87650776Y-84205218D01*
X87650778Y-84205218D01*
X87650781Y-84205220D01*
X87755137Y-84239127D01*
X87845465Y-84268477D01*
X87946557Y-84284488D01*
X88047648Y-84300500D01*
X88047649Y-84300500D01*
X88252351Y-84300500D01*
X88252352Y-84300500D01*
X88454534Y-84268477D01*
X88649219Y-84205220D01*
X88831610Y-84112287D01*
X88924590Y-84044732D01*
X88997213Y-83991971D01*
X88997215Y-83991968D01*
X88997219Y-83991966D01*
X89141966Y-83847219D01*
X89141968Y-83847215D01*
X89141971Y-83847213D01*
X89212599Y-83750000D01*
X89262287Y-83681610D01*
X89355220Y-83499219D01*
X89418477Y-83304534D01*
X89450500Y-83102352D01*
X89450500Y-82897648D01*
X99549500Y-82897648D01*
X99549500Y-83102351D01*
X99581522Y-83304534D01*
X99644781Y-83499223D01*
X99737715Y-83681613D01*
X99858028Y-83847213D01*
X100002786Y-83991971D01*
X100085872Y-84052335D01*
X100168390Y-84112287D01*
X100276838Y-84167544D01*
X100350776Y-84205218D01*
X100350778Y-84205218D01*
X100350781Y-84205220D01*
X100455137Y-84239127D01*
X100545465Y-84268477D01*
X100646557Y-84284488D01*
X100747648Y-84300500D01*
X100747649Y-84300500D01*
X100952351Y-84300500D01*
X100952352Y-84300500D01*
X101154534Y-84268477D01*
X101349219Y-84205220D01*
X101531610Y-84112287D01*
X101624590Y-84044732D01*
X101697213Y-83991971D01*
X101697215Y-83991968D01*
X101697219Y-83991966D01*
X101841966Y-83847219D01*
X101841968Y-83847215D01*
X101841971Y-83847213D01*
X101912599Y-83750000D01*
X101962287Y-83681610D01*
X102055220Y-83499219D01*
X102118477Y-83304534D01*
X102150500Y-83102352D01*
X102150500Y-82897648D01*
X102118477Y-82695466D01*
X102055220Y-82500781D01*
X102055218Y-82500778D01*
X102055218Y-82500776D01*
X102007898Y-82407906D01*
X101962287Y-82318390D01*
X101943704Y-82292812D01*
X101841971Y-82152786D01*
X101751320Y-82062135D01*
X104649500Y-82062135D01*
X104649500Y-83857870D01*
X104649501Y-83857876D01*
X104655908Y-83917483D01*
X104706202Y-84052328D01*
X104706206Y-84052335D01*
X104792452Y-84167544D01*
X104792455Y-84167547D01*
X104907664Y-84253793D01*
X104907671Y-84253797D01*
X105039082Y-84302810D01*
X105095016Y-84344681D01*
X105119433Y-84410145D01*
X105104582Y-84478418D01*
X105083431Y-84506673D01*
X104969889Y-84620215D01*
X104844951Y-84792179D01*
X104748444Y-84981585D01*
X104682753Y-85183760D01*
X104649500Y-85393713D01*
X104649500Y-85606286D01*
X104668105Y-85723757D01*
X104682754Y-85816243D01*
X104720922Y-85933713D01*
X104748444Y-86018414D01*
X104844951Y-86207820D01*
X104969890Y-86379786D01*
X105120213Y-86530109D01*
X105292179Y-86655048D01*
X105292181Y-86655049D01*
X105292184Y-86655051D01*
X105481588Y-86751557D01*
X105683757Y-86817246D01*
X105893713Y-86850500D01*
X105893714Y-86850500D01*
X106106286Y-86850500D01*
X106106287Y-86850500D01*
X106316243Y-86817246D01*
X106518412Y-86751557D01*
X106707816Y-86655051D01*
X106731680Y-86637713D01*
X106879786Y-86530109D01*
X106879788Y-86530106D01*
X106879792Y-86530104D01*
X107030104Y-86379792D01*
X107030106Y-86379788D01*
X107030109Y-86379786D01*
X107155048Y-86207820D01*
X107155047Y-86207820D01*
X107155051Y-86207816D01*
X107251557Y-86018412D01*
X107317246Y-85816243D01*
X107350500Y-85606287D01*
X107350500Y-85393713D01*
X107317246Y-85183757D01*
X107251557Y-84981588D01*
X107155051Y-84792184D01*
X107155049Y-84792181D01*
X107155048Y-84792179D01*
X107030109Y-84620213D01*
X106916569Y-84506673D01*
X106883084Y-84445350D01*
X106888068Y-84375658D01*
X106929940Y-84319725D01*
X106960915Y-84302810D01*
X107092331Y-84253796D01*
X107207546Y-84167546D01*
X107293796Y-84052331D01*
X107344091Y-83917483D01*
X107350500Y-83857873D01*
X107350499Y-82062128D01*
X107344091Y-82002517D01*
X107293796Y-81867669D01*
X107293795Y-81867668D01*
X107293793Y-81867664D01*
X107207547Y-81752455D01*
X107207544Y-81752452D01*
X107092335Y-81666206D01*
X107092328Y-81666202D01*
X106957482Y-81615908D01*
X106957483Y-81615908D01*
X106897883Y-81609501D01*
X106897881Y-81609500D01*
X106897873Y-81609500D01*
X106897864Y-81609500D01*
X105102129Y-81609500D01*
X105102123Y-81609501D01*
X105042516Y-81615908D01*
X104907671Y-81666202D01*
X104907664Y-81666206D01*
X104792455Y-81752452D01*
X104792452Y-81752455D01*
X104706206Y-81867664D01*
X104706202Y-81867671D01*
X104655908Y-82002517D01*
X104649501Y-82062116D01*
X104649501Y-82062123D01*
X104649500Y-82062135D01*
X101751320Y-82062135D01*
X101697213Y-82008028D01*
X101531613Y-81887715D01*
X101531612Y-81887714D01*
X101531610Y-81887713D01*
X101474653Y-81858691D01*
X101349223Y-81794781D01*
X101154534Y-81731522D01*
X100979995Y-81703878D01*
X100952352Y-81699500D01*
X100747648Y-81699500D01*
X100723329Y-81703351D01*
X100545465Y-81731522D01*
X100350776Y-81794781D01*
X100168386Y-81887715D01*
X100002786Y-82008028D01*
X99858028Y-82152786D01*
X99737715Y-82318386D01*
X99644781Y-82500776D01*
X99581522Y-82695465D01*
X99549500Y-82897648D01*
X89450500Y-82897648D01*
X89418477Y-82695466D01*
X89355220Y-82500781D01*
X89355218Y-82500778D01*
X89355218Y-82500776D01*
X89307898Y-82407906D01*
X89262287Y-82318390D01*
X89243704Y-82292812D01*
X89141971Y-82152786D01*
X88997213Y-82008028D01*
X88831613Y-81887715D01*
X88831612Y-81887714D01*
X88831610Y-81887713D01*
X88774653Y-81858691D01*
X88649223Y-81794781D01*
X88454534Y-81731522D01*
X88279995Y-81703878D01*
X88252352Y-81699500D01*
X88047648Y-81699500D01*
X88023329Y-81703351D01*
X87845465Y-81731522D01*
X87650776Y-81794781D01*
X87468386Y-81887715D01*
X87302786Y-82008028D01*
X87158032Y-82152782D01*
X87158028Y-82152787D01*
X87124900Y-82198385D01*
X87069571Y-82241051D01*
X87024582Y-82249500D01*
X85466080Y-82249500D01*
X85321092Y-82278340D01*
X85321082Y-82278343D01*
X85184511Y-82334912D01*
X85184498Y-82334919D01*
X85061584Y-82417048D01*
X85061580Y-82417051D01*
X84061681Y-83416950D01*
X84000358Y-83450435D01*
X83930666Y-83445451D01*
X83874733Y-83403579D01*
X83850316Y-83338115D01*
X83850000Y-83329269D01*
X83850000Y-82602172D01*
X83849999Y-82602155D01*
X83843598Y-82542627D01*
X83843596Y-82542620D01*
X83793354Y-82407913D01*
X83793350Y-82407906D01*
X83707190Y-82292812D01*
X83707187Y-82292809D01*
X83592093Y-82206649D01*
X83592086Y-82206645D01*
X83457379Y-82156403D01*
X83457372Y-82156401D01*
X83397844Y-82150000D01*
X82750000Y-82150000D01*
X82750000Y-83066988D01*
X82692993Y-83034075D01*
X82565826Y-83000000D01*
X82434174Y-83000000D01*
X82307007Y-83034075D01*
X82250000Y-83066988D01*
X82250000Y-82150000D01*
X81602155Y-82150000D01*
X81542627Y-82156401D01*
X81542620Y-82156403D01*
X81407913Y-82206645D01*
X81407906Y-82206649D01*
X81292812Y-82292809D01*
X81292809Y-82292812D01*
X81206649Y-82407906D01*
X81206645Y-82407913D01*
X81156403Y-82542620D01*
X81156401Y-82542627D01*
X81150000Y-82602155D01*
X81150000Y-83250000D01*
X82066988Y-83250000D01*
X82034075Y-83307007D01*
X82000000Y-83434174D01*
X82000000Y-83565826D01*
X82034075Y-83692993D01*
X82066988Y-83750000D01*
X81150000Y-83750000D01*
X81150000Y-84397844D01*
X81156401Y-84457372D01*
X81156403Y-84457379D01*
X81206645Y-84592086D01*
X81206649Y-84592093D01*
X81292809Y-84707187D01*
X81292812Y-84707190D01*
X81407906Y-84793350D01*
X81407913Y-84793354D01*
X81539470Y-84842422D01*
X81595404Y-84884293D01*
X81619821Y-84949758D01*
X81604969Y-85018031D01*
X81583819Y-85046285D01*
X81469889Y-85160215D01*
X81344951Y-85332179D01*
X81248444Y-85521585D01*
X81248443Y-85521587D01*
X81248443Y-85521588D01*
X81215598Y-85622672D01*
X81182753Y-85723760D01*
X81164616Y-85838272D01*
X81149500Y-85933713D01*
X79000500Y-85933713D01*
X79000500Y-79124500D01*
X79020185Y-79057461D01*
X79072989Y-79011706D01*
X79124500Y-79000500D01*
X109875500Y-79000500D01*
X109942539Y-79020185D01*
G37*
%TD.AperFunction*%
%TD*%
M02*
