%TF.GenerationSoftware,KiCad,Pcbnew,9.0.7*%
%TF.CreationDate,2026-01-10T14:03:12+05:30*%
%TF.ProjectId,first,66697273-742e-46b6-9963-61645f706362,rev?*%
%TF.SameCoordinates,Original*%
%TF.FileFunction,Legend,Top*%
%TF.FilePolarity,Positive*%
%FSLAX46Y46*%
G04 Gerber Fmt 4.6, Leading zero omitted, Abs format (unit mm)*
G04 Created by KiCad (PCBNEW 9.0.7) date 2026-01-10 14:03:12*
%MOMM*%
%LPD*%
G01*
G04 APERTURE LIST*
%ADD10C,0.100000*%
%ADD11C,0.200000*%
%ADD12C,0.125000*%
%ADD13C,0.150000*%
%ADD14C,0.120000*%
G04 APERTURE END LIST*
D10*
X81375312Y-93372419D02*
X81041979Y-92896228D01*
X80803884Y-93372419D02*
X80803884Y-92372419D01*
X80803884Y-92372419D02*
X81184836Y-92372419D01*
X81184836Y-92372419D02*
X81280074Y-92420038D01*
X81280074Y-92420038D02*
X81327693Y-92467657D01*
X81327693Y-92467657D02*
X81375312Y-92562895D01*
X81375312Y-92562895D02*
X81375312Y-92705752D01*
X81375312Y-92705752D02*
X81327693Y-92800990D01*
X81327693Y-92800990D02*
X81280074Y-92848609D01*
X81280074Y-92848609D02*
X81184836Y-92896228D01*
X81184836Y-92896228D02*
X80803884Y-92896228D01*
X82184836Y-93324800D02*
X82089598Y-93372419D01*
X82089598Y-93372419D02*
X81899122Y-93372419D01*
X81899122Y-93372419D02*
X81803884Y-93324800D01*
X81803884Y-93324800D02*
X81756265Y-93229561D01*
X81756265Y-93229561D02*
X81756265Y-92848609D01*
X81756265Y-92848609D02*
X81803884Y-92753371D01*
X81803884Y-92753371D02*
X81899122Y-92705752D01*
X81899122Y-92705752D02*
X82089598Y-92705752D01*
X82089598Y-92705752D02*
X82184836Y-92753371D01*
X82184836Y-92753371D02*
X82232455Y-92848609D01*
X82232455Y-92848609D02*
X82232455Y-92943847D01*
X82232455Y-92943847D02*
X81756265Y-93039085D01*
X82565789Y-92705752D02*
X82803884Y-93372419D01*
X82803884Y-93372419D02*
X83041979Y-92705752D01*
X83422932Y-93277180D02*
X83470551Y-93324800D01*
X83470551Y-93324800D02*
X83422932Y-93372419D01*
X83422932Y-93372419D02*
X83375313Y-93324800D01*
X83375313Y-93324800D02*
X83422932Y-93277180D01*
X83422932Y-93277180D02*
X83422932Y-93372419D01*
X84422931Y-93372419D02*
X83851503Y-93372419D01*
X84137217Y-93372419D02*
X84137217Y-92372419D01*
X84137217Y-92372419D02*
X84041979Y-92515276D01*
X84041979Y-92515276D02*
X83946741Y-92610514D01*
X83946741Y-92610514D02*
X83851503Y-92658133D01*
X84851503Y-93277180D02*
X84899122Y-93324800D01*
X84899122Y-93324800D02*
X84851503Y-93372419D01*
X84851503Y-93372419D02*
X84803884Y-93324800D01*
X84803884Y-93324800D02*
X84851503Y-93277180D01*
X84851503Y-93277180D02*
X84851503Y-93372419D01*
X85518169Y-92372419D02*
X85613407Y-92372419D01*
X85613407Y-92372419D02*
X85708645Y-92420038D01*
X85708645Y-92420038D02*
X85756264Y-92467657D01*
X85756264Y-92467657D02*
X85803883Y-92562895D01*
X85803883Y-92562895D02*
X85851502Y-92753371D01*
X85851502Y-92753371D02*
X85851502Y-92991466D01*
X85851502Y-92991466D02*
X85803883Y-93181942D01*
X85803883Y-93181942D02*
X85756264Y-93277180D01*
X85756264Y-93277180D02*
X85708645Y-93324800D01*
X85708645Y-93324800D02*
X85613407Y-93372419D01*
X85613407Y-93372419D02*
X85518169Y-93372419D01*
X85518169Y-93372419D02*
X85422931Y-93324800D01*
X85422931Y-93324800D02*
X85375312Y-93277180D01*
X85375312Y-93277180D02*
X85327693Y-93181942D01*
X85327693Y-93181942D02*
X85280074Y-92991466D01*
X85280074Y-92991466D02*
X85280074Y-92753371D01*
X85280074Y-92753371D02*
X85327693Y-92562895D01*
X85327693Y-92562895D02*
X85375312Y-92467657D01*
X85375312Y-92467657D02*
X85422931Y-92420038D01*
X85422931Y-92420038D02*
X85518169Y-92372419D01*
D11*
G36*
X83016645Y-90981504D02*
G01*
X82817940Y-90981504D01*
X82917292Y-90683446D01*
X83016645Y-90981504D01*
G37*
G36*
X84842689Y-91578086D02*
G01*
X80517626Y-91578086D01*
X80517626Y-90966757D01*
X80628737Y-90966757D01*
X80628737Y-91005775D01*
X80643669Y-91041823D01*
X80671259Y-91069413D01*
X80707307Y-91084345D01*
X80746325Y-91084345D01*
X80782373Y-91069413D01*
X80797527Y-91056977D01*
X80833670Y-91020832D01*
X80869673Y-91002831D01*
X81015428Y-91075709D01*
X81033736Y-91082715D01*
X81040863Y-91083221D01*
X81047642Y-91085481D01*
X81060149Y-91084592D01*
X81072657Y-91085481D01*
X81079435Y-91083221D01*
X81086562Y-91082715D01*
X81104870Y-91075709D01*
X81200108Y-91028090D01*
X81208504Y-91022804D01*
X81210944Y-91021794D01*
X81213690Y-91019540D01*
X81216698Y-91017647D01*
X81218427Y-91015652D01*
X81226098Y-91009358D01*
X81273716Y-90961739D01*
X81286153Y-90946586D01*
X81301084Y-90910537D01*
X81301084Y-90871519D01*
X81286153Y-90835471D01*
X81258563Y-90807881D01*
X81222515Y-90792950D01*
X81183497Y-90792950D01*
X81147448Y-90807881D01*
X81132295Y-90820318D01*
X81096151Y-90856460D01*
X81060149Y-90874462D01*
X80914394Y-90801585D01*
X80896086Y-90794579D01*
X80888958Y-90794072D01*
X80882180Y-90791813D01*
X80869673Y-90792701D01*
X80857166Y-90791813D01*
X80850387Y-90794072D01*
X80843260Y-90794579D01*
X80824951Y-90801585D01*
X80729714Y-90849204D01*
X80721317Y-90854489D01*
X80718877Y-90855500D01*
X80716131Y-90857753D01*
X80713123Y-90859647D01*
X80711390Y-90861644D01*
X80703724Y-90867937D01*
X80656105Y-90915555D01*
X80643669Y-90930709D01*
X80628737Y-90966757D01*
X80517626Y-90966757D01*
X80517626Y-90367219D01*
X81483959Y-90367219D01*
X81483959Y-91367219D01*
X81485880Y-91386728D01*
X81500812Y-91422776D01*
X81528402Y-91450366D01*
X81564450Y-91465298D01*
X81603468Y-91465298D01*
X81639516Y-91450366D01*
X81667106Y-91422776D01*
X81682038Y-91386728D01*
X81683959Y-91367219D01*
X81683959Y-90817975D01*
X81826674Y-91123793D01*
X81830906Y-91130938D01*
X81831786Y-91133356D01*
X81833351Y-91135065D01*
X81836665Y-91140659D01*
X81847875Y-91150925D01*
X81858137Y-91162131D01*
X81862162Y-91164009D01*
X81865440Y-91167011D01*
X81879722Y-91172204D01*
X81893495Y-91178632D01*
X81897934Y-91178827D01*
X81902109Y-91180345D01*
X81917292Y-91179677D01*
X81932475Y-91180345D01*
X81936648Y-91178827D01*
X81941090Y-91178632D01*
X81954874Y-91172199D01*
X81969144Y-91167010D01*
X81972417Y-91164012D01*
X81976447Y-91162132D01*
X81986716Y-91150917D01*
X81997919Y-91140659D01*
X82001230Y-91135068D01*
X82002799Y-91133356D01*
X82003679Y-91130934D01*
X82007910Y-91123793D01*
X82150625Y-90817974D01*
X82150625Y-91367219D01*
X82152546Y-91386728D01*
X82167478Y-91422776D01*
X82195068Y-91450366D01*
X82231116Y-91465298D01*
X82270134Y-91465298D01*
X82306182Y-91450366D01*
X82333772Y-91422776D01*
X82348704Y-91386728D01*
X82350625Y-91367219D01*
X82350625Y-91354712D01*
X82484744Y-91354712D01*
X82487510Y-91393632D01*
X82504960Y-91428531D01*
X82534436Y-91454096D01*
X82571452Y-91466434D01*
X82610372Y-91463668D01*
X82645271Y-91446218D01*
X82670836Y-91416742D01*
X82678827Y-91398842D01*
X82751273Y-91181504D01*
X83083311Y-91181504D01*
X83155757Y-91398841D01*
X83163748Y-91416742D01*
X83189313Y-91446218D01*
X83224212Y-91463667D01*
X83263132Y-91466434D01*
X83300148Y-91454095D01*
X83329624Y-91428530D01*
X83347074Y-91393631D01*
X83349840Y-91354711D01*
X83345493Y-91335596D01*
X83022701Y-90367219D01*
X83483959Y-90367219D01*
X83483959Y-91367219D01*
X83485880Y-91386728D01*
X83500812Y-91422776D01*
X83528402Y-91450366D01*
X83564450Y-91465298D01*
X83603468Y-91465298D01*
X83639516Y-91450366D01*
X83667106Y-91422776D01*
X83682038Y-91386728D01*
X83683959Y-91367219D01*
X83683959Y-90743775D01*
X84068563Y-91416833D01*
X84071481Y-91420943D01*
X84072240Y-91422776D01*
X84074106Y-91424642D01*
X84079910Y-91432818D01*
X84090426Y-91440962D01*
X84099830Y-91450366D01*
X84105717Y-91452804D01*
X84110759Y-91456709D01*
X84123591Y-91460208D01*
X84135878Y-91465298D01*
X84142254Y-91465298D01*
X84148403Y-91466975D01*
X84161596Y-91465298D01*
X84174896Y-91465298D01*
X84180784Y-91462858D01*
X84187109Y-91462055D01*
X84198658Y-91455454D01*
X84210944Y-91450366D01*
X84215451Y-91445858D01*
X84220986Y-91442696D01*
X84229130Y-91432179D01*
X84238534Y-91422776D01*
X84240972Y-91416888D01*
X84244877Y-91411847D01*
X84248376Y-91399014D01*
X84253466Y-91386728D01*
X84254448Y-91376750D01*
X84255143Y-91374204D01*
X84254892Y-91372236D01*
X84255387Y-91367219D01*
X84255387Y-90367219D01*
X84531578Y-90367219D01*
X84531578Y-91367219D01*
X84533499Y-91386728D01*
X84548431Y-91422776D01*
X84576021Y-91450366D01*
X84612069Y-91465298D01*
X84651087Y-91465298D01*
X84687135Y-91450366D01*
X84714725Y-91422776D01*
X84729657Y-91386728D01*
X84731578Y-91367219D01*
X84731578Y-90367219D01*
X84729657Y-90347710D01*
X84714725Y-90311662D01*
X84687135Y-90284072D01*
X84651087Y-90269140D01*
X84612069Y-90269140D01*
X84576021Y-90284072D01*
X84548431Y-90311662D01*
X84533499Y-90347710D01*
X84531578Y-90367219D01*
X84255387Y-90367219D01*
X84253466Y-90347710D01*
X84238534Y-90311662D01*
X84210944Y-90284072D01*
X84174896Y-90269140D01*
X84135878Y-90269140D01*
X84099830Y-90284072D01*
X84072240Y-90311662D01*
X84057308Y-90347710D01*
X84055387Y-90367219D01*
X84055387Y-90990662D01*
X83670783Y-90317605D01*
X83667864Y-90313494D01*
X83667106Y-90311662D01*
X83665239Y-90309795D01*
X83659436Y-90301620D01*
X83648921Y-90293477D01*
X83639516Y-90284072D01*
X83633625Y-90281632D01*
X83628587Y-90277730D01*
X83615758Y-90274231D01*
X83603468Y-90269140D01*
X83597093Y-90269140D01*
X83590944Y-90267463D01*
X83577751Y-90269140D01*
X83564450Y-90269140D01*
X83558561Y-90271579D01*
X83552237Y-90272383D01*
X83540687Y-90278983D01*
X83528402Y-90284072D01*
X83523894Y-90288579D01*
X83518360Y-90291742D01*
X83510217Y-90302256D01*
X83500812Y-90311662D01*
X83498372Y-90317552D01*
X83494470Y-90322591D01*
X83490971Y-90335419D01*
X83485880Y-90347710D01*
X83484897Y-90357687D01*
X83484203Y-90360234D01*
X83484453Y-90362201D01*
X83483959Y-90367219D01*
X83022701Y-90367219D01*
X83012160Y-90335596D01*
X83004169Y-90317696D01*
X82999484Y-90312294D01*
X82996291Y-90305908D01*
X82986822Y-90297695D01*
X82978604Y-90288220D01*
X82972212Y-90285023D01*
X82966815Y-90280343D01*
X82954921Y-90276378D01*
X82943705Y-90270770D01*
X82936577Y-90270263D01*
X82929799Y-90268004D01*
X82917294Y-90268893D01*
X82904785Y-90268004D01*
X82898003Y-90270264D01*
X82890879Y-90270771D01*
X82879670Y-90276374D01*
X82867769Y-90280342D01*
X82862368Y-90285025D01*
X82855980Y-90288220D01*
X82847764Y-90297691D01*
X82838293Y-90305907D01*
X82835098Y-90312296D01*
X82830415Y-90317696D01*
X82822424Y-90335597D01*
X82489091Y-91335596D01*
X82484744Y-91354712D01*
X82350625Y-91354712D01*
X82350625Y-90367219D01*
X82349362Y-90354395D01*
X82349466Y-90352036D01*
X82349005Y-90350768D01*
X82348704Y-90347710D01*
X82342063Y-90331679D01*
X82336132Y-90315367D01*
X82334625Y-90313721D01*
X82333772Y-90311662D01*
X82321510Y-90299400D01*
X82309780Y-90286591D01*
X82307756Y-90285646D01*
X82306182Y-90284072D01*
X82290166Y-90277437D01*
X82274423Y-90270091D01*
X82272193Y-90269993D01*
X82270134Y-90269140D01*
X82252782Y-90269140D01*
X82235442Y-90268378D01*
X82233346Y-90269140D01*
X82231116Y-90269140D01*
X82215085Y-90275780D01*
X82198773Y-90281712D01*
X82197127Y-90283218D01*
X82195068Y-90284072D01*
X82182800Y-90296339D01*
X82169998Y-90308064D01*
X82168431Y-90310708D01*
X82167478Y-90311662D01*
X82166574Y-90313843D01*
X82160007Y-90324930D01*
X81917291Y-90845033D01*
X81674577Y-90324930D01*
X81668009Y-90313843D01*
X81667106Y-90311662D01*
X81666152Y-90310708D01*
X81664586Y-90308064D01*
X81651789Y-90296345D01*
X81639516Y-90284072D01*
X81637454Y-90283218D01*
X81635811Y-90281713D01*
X81619509Y-90275784D01*
X81603468Y-90269140D01*
X81601237Y-90269140D01*
X81599142Y-90268378D01*
X81581802Y-90269140D01*
X81564450Y-90269140D01*
X81562390Y-90269993D01*
X81560162Y-90270091D01*
X81544431Y-90277432D01*
X81528402Y-90284072D01*
X81526825Y-90285648D01*
X81524804Y-90286592D01*
X81513085Y-90299388D01*
X81500812Y-90311662D01*
X81499958Y-90313723D01*
X81498453Y-90315367D01*
X81492524Y-90331668D01*
X81485880Y-90347710D01*
X81485578Y-90350768D01*
X81485118Y-90352036D01*
X81485221Y-90354395D01*
X81483959Y-90367219D01*
X80517626Y-90367219D01*
X80517626Y-90156352D01*
X84842689Y-90156352D01*
X84842689Y-91578086D01*
G37*
D12*
X81250001Y-80692904D02*
X81321429Y-80716714D01*
X81321429Y-80716714D02*
X81345239Y-80740523D01*
X81345239Y-80740523D02*
X81369048Y-80788142D01*
X81369048Y-80788142D02*
X81369048Y-80859571D01*
X81369048Y-80859571D02*
X81345239Y-80907190D01*
X81345239Y-80907190D02*
X81321429Y-80931000D01*
X81321429Y-80931000D02*
X81273810Y-80954809D01*
X81273810Y-80954809D02*
X81083334Y-80954809D01*
X81083334Y-80954809D02*
X81083334Y-80454809D01*
X81083334Y-80454809D02*
X81250001Y-80454809D01*
X81250001Y-80454809D02*
X81297620Y-80478619D01*
X81297620Y-80478619D02*
X81321429Y-80502428D01*
X81321429Y-80502428D02*
X81345239Y-80550047D01*
X81345239Y-80550047D02*
X81345239Y-80597666D01*
X81345239Y-80597666D02*
X81321429Y-80645285D01*
X81321429Y-80645285D02*
X81297620Y-80669095D01*
X81297620Y-80669095D02*
X81250001Y-80692904D01*
X81250001Y-80692904D02*
X81083334Y-80692904D01*
X81559525Y-80811952D02*
X81797620Y-80811952D01*
X81511906Y-80954809D02*
X81678572Y-80454809D01*
X81678572Y-80454809D02*
X81845239Y-80954809D01*
X81940477Y-80454809D02*
X82226191Y-80454809D01*
X82083334Y-80954809D02*
X82083334Y-80454809D01*
X82321429Y-80454809D02*
X82607143Y-80454809D01*
X82464286Y-80954809D02*
X82464286Y-80454809D01*
X82773809Y-80692904D02*
X82940476Y-80692904D01*
X83011904Y-80954809D02*
X82773809Y-80954809D01*
X82773809Y-80954809D02*
X82773809Y-80454809D01*
X82773809Y-80454809D02*
X83011904Y-80454809D01*
X83511904Y-80954809D02*
X83345238Y-80716714D01*
X83226190Y-80954809D02*
X83226190Y-80454809D01*
X83226190Y-80454809D02*
X83416666Y-80454809D01*
X83416666Y-80454809D02*
X83464285Y-80478619D01*
X83464285Y-80478619D02*
X83488095Y-80502428D01*
X83488095Y-80502428D02*
X83511904Y-80550047D01*
X83511904Y-80550047D02*
X83511904Y-80621476D01*
X83511904Y-80621476D02*
X83488095Y-80669095D01*
X83488095Y-80669095D02*
X83464285Y-80692904D01*
X83464285Y-80692904D02*
X83416666Y-80716714D01*
X83416666Y-80716714D02*
X83226190Y-80716714D01*
X83821428Y-80716714D02*
X83821428Y-80954809D01*
X83654762Y-80454809D02*
X83821428Y-80716714D01*
X83821428Y-80716714D02*
X83988095Y-80454809D01*
X104904762Y-80391000D02*
X104976190Y-80414809D01*
X104976190Y-80414809D02*
X105095238Y-80414809D01*
X105095238Y-80414809D02*
X105142857Y-80391000D01*
X105142857Y-80391000D02*
X105166666Y-80367190D01*
X105166666Y-80367190D02*
X105190476Y-80319571D01*
X105190476Y-80319571D02*
X105190476Y-80271952D01*
X105190476Y-80271952D02*
X105166666Y-80224333D01*
X105166666Y-80224333D02*
X105142857Y-80200523D01*
X105142857Y-80200523D02*
X105095238Y-80176714D01*
X105095238Y-80176714D02*
X105000000Y-80152904D01*
X105000000Y-80152904D02*
X104952381Y-80129095D01*
X104952381Y-80129095D02*
X104928571Y-80105285D01*
X104928571Y-80105285D02*
X104904762Y-80057666D01*
X104904762Y-80057666D02*
X104904762Y-80010047D01*
X104904762Y-80010047D02*
X104928571Y-79962428D01*
X104928571Y-79962428D02*
X104952381Y-79938619D01*
X104952381Y-79938619D02*
X105000000Y-79914809D01*
X105000000Y-79914809D02*
X105119047Y-79914809D01*
X105119047Y-79914809D02*
X105190476Y-79938619D01*
X105404761Y-80152904D02*
X105571428Y-80152904D01*
X105642856Y-80414809D02*
X105404761Y-80414809D01*
X105404761Y-80414809D02*
X105404761Y-79914809D01*
X105404761Y-79914809D02*
X105642856Y-79914809D01*
X105857142Y-80414809D02*
X105857142Y-79914809D01*
X105857142Y-79914809D02*
X106142856Y-80414809D01*
X106142856Y-80414809D02*
X106142856Y-79914809D01*
X106357143Y-80391000D02*
X106428571Y-80414809D01*
X106428571Y-80414809D02*
X106547619Y-80414809D01*
X106547619Y-80414809D02*
X106595238Y-80391000D01*
X106595238Y-80391000D02*
X106619047Y-80367190D01*
X106619047Y-80367190D02*
X106642857Y-80319571D01*
X106642857Y-80319571D02*
X106642857Y-80271952D01*
X106642857Y-80271952D02*
X106619047Y-80224333D01*
X106619047Y-80224333D02*
X106595238Y-80200523D01*
X106595238Y-80200523D02*
X106547619Y-80176714D01*
X106547619Y-80176714D02*
X106452381Y-80152904D01*
X106452381Y-80152904D02*
X106404762Y-80129095D01*
X106404762Y-80129095D02*
X106380952Y-80105285D01*
X106380952Y-80105285D02*
X106357143Y-80057666D01*
X106357143Y-80057666D02*
X106357143Y-80010047D01*
X106357143Y-80010047D02*
X106380952Y-79962428D01*
X106380952Y-79962428D02*
X106404762Y-79938619D01*
X106404762Y-79938619D02*
X106452381Y-79914809D01*
X106452381Y-79914809D02*
X106571428Y-79914809D01*
X106571428Y-79914809D02*
X106642857Y-79938619D01*
X106857142Y-80152904D02*
X107023809Y-80152904D01*
X107095237Y-80414809D02*
X106857142Y-80414809D01*
X106857142Y-80414809D02*
X106857142Y-79914809D01*
X106857142Y-79914809D02*
X107095237Y-79914809D01*
D13*
X94333333Y-85484819D02*
X94000000Y-85008628D01*
X93761905Y-85484819D02*
X93761905Y-84484819D01*
X93761905Y-84484819D02*
X94142857Y-84484819D01*
X94142857Y-84484819D02*
X94238095Y-84532438D01*
X94238095Y-84532438D02*
X94285714Y-84580057D01*
X94285714Y-84580057D02*
X94333333Y-84675295D01*
X94333333Y-84675295D02*
X94333333Y-84818152D01*
X94333333Y-84818152D02*
X94285714Y-84913390D01*
X94285714Y-84913390D02*
X94238095Y-84961009D01*
X94238095Y-84961009D02*
X94142857Y-85008628D01*
X94142857Y-85008628D02*
X93761905Y-85008628D01*
X94714286Y-84580057D02*
X94761905Y-84532438D01*
X94761905Y-84532438D02*
X94857143Y-84484819D01*
X94857143Y-84484819D02*
X95095238Y-84484819D01*
X95095238Y-84484819D02*
X95190476Y-84532438D01*
X95190476Y-84532438D02*
X95238095Y-84580057D01*
X95238095Y-84580057D02*
X95285714Y-84675295D01*
X95285714Y-84675295D02*
X95285714Y-84770533D01*
X95285714Y-84770533D02*
X95238095Y-84913390D01*
X95238095Y-84913390D02*
X94666667Y-85484819D01*
X94666667Y-85484819D02*
X95285714Y-85484819D01*
X94333333Y-80734819D02*
X94000000Y-80258628D01*
X93761905Y-80734819D02*
X93761905Y-79734819D01*
X93761905Y-79734819D02*
X94142857Y-79734819D01*
X94142857Y-79734819D02*
X94238095Y-79782438D01*
X94238095Y-79782438D02*
X94285714Y-79830057D01*
X94285714Y-79830057D02*
X94333333Y-79925295D01*
X94333333Y-79925295D02*
X94333333Y-80068152D01*
X94333333Y-80068152D02*
X94285714Y-80163390D01*
X94285714Y-80163390D02*
X94238095Y-80211009D01*
X94238095Y-80211009D02*
X94142857Y-80258628D01*
X94142857Y-80258628D02*
X93761905Y-80258628D01*
X95285714Y-80734819D02*
X94714286Y-80734819D01*
X95000000Y-80734819D02*
X95000000Y-79734819D01*
X95000000Y-79734819D02*
X94904762Y-79877676D01*
X94904762Y-79877676D02*
X94809524Y-79972914D01*
X94809524Y-79972914D02*
X94714286Y-80020533D01*
X84083333Y-97609580D02*
X84035714Y-97657200D01*
X84035714Y-97657200D02*
X83892857Y-97704819D01*
X83892857Y-97704819D02*
X83797619Y-97704819D01*
X83797619Y-97704819D02*
X83654762Y-97657200D01*
X83654762Y-97657200D02*
X83559524Y-97561961D01*
X83559524Y-97561961D02*
X83511905Y-97466723D01*
X83511905Y-97466723D02*
X83464286Y-97276247D01*
X83464286Y-97276247D02*
X83464286Y-97133390D01*
X83464286Y-97133390D02*
X83511905Y-96942914D01*
X83511905Y-96942914D02*
X83559524Y-96847676D01*
X83559524Y-96847676D02*
X83654762Y-96752438D01*
X83654762Y-96752438D02*
X83797619Y-96704819D01*
X83797619Y-96704819D02*
X83892857Y-96704819D01*
X83892857Y-96704819D02*
X84035714Y-96752438D01*
X84035714Y-96752438D02*
X84083333Y-96800057D01*
X84464286Y-96800057D02*
X84511905Y-96752438D01*
X84511905Y-96752438D02*
X84607143Y-96704819D01*
X84607143Y-96704819D02*
X84845238Y-96704819D01*
X84845238Y-96704819D02*
X84940476Y-96752438D01*
X84940476Y-96752438D02*
X84988095Y-96800057D01*
X84988095Y-96800057D02*
X85035714Y-96895295D01*
X85035714Y-96895295D02*
X85035714Y-96990533D01*
X85035714Y-96990533D02*
X84988095Y-97133390D01*
X84988095Y-97133390D02*
X84416667Y-97704819D01*
X84416667Y-97704819D02*
X85035714Y-97704819D01*
D12*
X90652904Y-107678570D02*
X90676714Y-107607142D01*
X90676714Y-107607142D02*
X90700523Y-107583332D01*
X90700523Y-107583332D02*
X90748142Y-107559523D01*
X90748142Y-107559523D02*
X90819571Y-107559523D01*
X90819571Y-107559523D02*
X90867190Y-107583332D01*
X90867190Y-107583332D02*
X90891000Y-107607142D01*
X90891000Y-107607142D02*
X90914809Y-107654761D01*
X90914809Y-107654761D02*
X90914809Y-107845237D01*
X90914809Y-107845237D02*
X90414809Y-107845237D01*
X90414809Y-107845237D02*
X90414809Y-107678570D01*
X90414809Y-107678570D02*
X90438619Y-107630951D01*
X90438619Y-107630951D02*
X90462428Y-107607142D01*
X90462428Y-107607142D02*
X90510047Y-107583332D01*
X90510047Y-107583332D02*
X90557666Y-107583332D01*
X90557666Y-107583332D02*
X90605285Y-107607142D01*
X90605285Y-107607142D02*
X90629095Y-107630951D01*
X90629095Y-107630951D02*
X90652904Y-107678570D01*
X90652904Y-107678570D02*
X90652904Y-107845237D01*
X90414809Y-107345237D02*
X90819571Y-107345237D01*
X90819571Y-107345237D02*
X90867190Y-107321427D01*
X90867190Y-107321427D02*
X90891000Y-107297618D01*
X90891000Y-107297618D02*
X90914809Y-107249999D01*
X90914809Y-107249999D02*
X90914809Y-107154761D01*
X90914809Y-107154761D02*
X90891000Y-107107142D01*
X90891000Y-107107142D02*
X90867190Y-107083332D01*
X90867190Y-107083332D02*
X90819571Y-107059523D01*
X90819571Y-107059523D02*
X90414809Y-107059523D01*
X90414809Y-106869046D02*
X90414809Y-106535713D01*
X90414809Y-106535713D02*
X90914809Y-106869046D01*
X90914809Y-106869046D02*
X90914809Y-106535713D01*
X90414809Y-106392856D02*
X90414809Y-106059523D01*
X90414809Y-106059523D02*
X90914809Y-106392856D01*
X90914809Y-106392856D02*
X90914809Y-106059523D01*
X90652904Y-105869047D02*
X90652904Y-105702380D01*
X90914809Y-105630952D02*
X90914809Y-105869047D01*
X90914809Y-105869047D02*
X90414809Y-105869047D01*
X90414809Y-105869047D02*
X90414809Y-105630952D01*
X90914809Y-105130952D02*
X90676714Y-105297618D01*
X90914809Y-105416666D02*
X90414809Y-105416666D01*
X90414809Y-105416666D02*
X90414809Y-105226190D01*
X90414809Y-105226190D02*
X90438619Y-105178571D01*
X90438619Y-105178571D02*
X90462428Y-105154761D01*
X90462428Y-105154761D02*
X90510047Y-105130952D01*
X90510047Y-105130952D02*
X90581476Y-105130952D01*
X90581476Y-105130952D02*
X90629095Y-105154761D01*
X90629095Y-105154761D02*
X90652904Y-105178571D01*
X90652904Y-105178571D02*
X90676714Y-105226190D01*
X90676714Y-105226190D02*
X90676714Y-105416666D01*
D13*
X102609580Y-102666666D02*
X102657200Y-102714285D01*
X102657200Y-102714285D02*
X102704819Y-102857142D01*
X102704819Y-102857142D02*
X102704819Y-102952380D01*
X102704819Y-102952380D02*
X102657200Y-103095237D01*
X102657200Y-103095237D02*
X102561961Y-103190475D01*
X102561961Y-103190475D02*
X102466723Y-103238094D01*
X102466723Y-103238094D02*
X102276247Y-103285713D01*
X102276247Y-103285713D02*
X102133390Y-103285713D01*
X102133390Y-103285713D02*
X101942914Y-103238094D01*
X101942914Y-103238094D02*
X101847676Y-103190475D01*
X101847676Y-103190475D02*
X101752438Y-103095237D01*
X101752438Y-103095237D02*
X101704819Y-102952380D01*
X101704819Y-102952380D02*
X101704819Y-102857142D01*
X101704819Y-102857142D02*
X101752438Y-102714285D01*
X101752438Y-102714285D02*
X101800057Y-102666666D01*
X102704819Y-101714285D02*
X102704819Y-102285713D01*
X102704819Y-101999999D02*
X101704819Y-101999999D01*
X101704819Y-101999999D02*
X101847676Y-102095237D01*
X101847676Y-102095237D02*
X101942914Y-102190475D01*
X101942914Y-102190475D02*
X101990533Y-102285713D01*
X93743095Y-90314819D02*
X93743095Y-91124342D01*
X93743095Y-91124342D02*
X93790714Y-91219580D01*
X93790714Y-91219580D02*
X93838333Y-91267200D01*
X93838333Y-91267200D02*
X93933571Y-91314819D01*
X93933571Y-91314819D02*
X94124047Y-91314819D01*
X94124047Y-91314819D02*
X94219285Y-91267200D01*
X94219285Y-91267200D02*
X94266904Y-91219580D01*
X94266904Y-91219580D02*
X94314523Y-91124342D01*
X94314523Y-91124342D02*
X94314523Y-90314819D01*
X95314523Y-91314819D02*
X94743095Y-91314819D01*
X95028809Y-91314819D02*
X95028809Y-90314819D01*
X95028809Y-90314819D02*
X94933571Y-90457676D01*
X94933571Y-90457676D02*
X94838333Y-90552914D01*
X94838333Y-90552914D02*
X94743095Y-90600533D01*
D14*
%TO.C,BATTERY*%
X81170000Y-84770000D02*
X81170000Y-87370000D01*
X81170000Y-84770000D02*
X83830000Y-84770000D01*
X81170000Y-87370000D02*
X83830000Y-87370000D01*
X82500000Y-82170000D02*
X83830000Y-82170000D01*
X83830000Y-82170000D02*
X83830000Y-83500000D01*
X83830000Y-84770000D02*
X83830000Y-87370000D01*
%TO.C,SENSE*%
X104670000Y-84230000D02*
X104670000Y-86830000D01*
X104670000Y-84230000D02*
X107330000Y-84230000D01*
X104670000Y-86830000D02*
X107330000Y-86830000D01*
X106000000Y-81630000D02*
X107330000Y-81630000D01*
X107330000Y-81630000D02*
X107330000Y-82960000D01*
X107330000Y-84230000D02*
X107330000Y-86830000D01*
%TO.C,R2*%
X89190000Y-87750000D02*
X89880000Y-87750000D01*
X99810000Y-87750000D02*
X99120000Y-87750000D01*
X89880000Y-86030000D02*
X99120000Y-86030000D01*
X99120000Y-89470000D01*
X89880000Y-89470000D01*
X89880000Y-86030000D01*
%TO.C,R1*%
X89190000Y-83000000D02*
X89880000Y-83000000D01*
X99810000Y-83000000D02*
X99120000Y-83000000D01*
X89880000Y-81280000D02*
X99120000Y-81280000D01*
X99120000Y-84720000D01*
X89880000Y-84720000D01*
X89880000Y-81280000D01*
%TO.C,C2*%
X88370000Y-102500000D02*
G75*
G02*
X80130000Y-102500000I-4120000J0D01*
G01*
X80130000Y-102500000D02*
G75*
G02*
X88370000Y-102500000I4120000J0D01*
G01*
X88330000Y-101967000D02*
X88330000Y-103033000D01*
X88290000Y-101732000D02*
X88290000Y-103268000D01*
X88250000Y-101553000D02*
X88250000Y-103447000D01*
X88210000Y-101403000D02*
X88210000Y-103597000D01*
X88170000Y-101272000D02*
X88170000Y-103728000D01*
X88130000Y-101154000D02*
X88130000Y-103846000D01*
X88090000Y-101047000D02*
X88090000Y-103953000D01*
X88050000Y-100948000D02*
X88050000Y-104052000D01*
X88010000Y-100856000D02*
X88010000Y-104144000D01*
X87970000Y-100769000D02*
X87970000Y-104231000D01*
X87930000Y-100687000D02*
X87930000Y-104313000D01*
X87890000Y-100610000D02*
X87890000Y-104390000D01*
X87850000Y-100536000D02*
X87850000Y-104464000D01*
X87810000Y-100466000D02*
X87810000Y-104534000D01*
X87770000Y-100399000D02*
X87770000Y-104601000D01*
X87730000Y-100335000D02*
X87730000Y-104665000D01*
X87690000Y-100273000D02*
X87690000Y-104727000D01*
X87650000Y-100213000D02*
X87650000Y-104787000D01*
X87610000Y-100156000D02*
X87610000Y-104844000D01*
X87570000Y-100100000D02*
X87570000Y-104900000D01*
X87530000Y-100047000D02*
X87530000Y-104953000D01*
X87490000Y-99995000D02*
X87490000Y-105005000D01*
X87450000Y-99945000D02*
X87450000Y-105055000D01*
X87410000Y-99896000D02*
X87410000Y-105104000D01*
X87370000Y-99849000D02*
X87370000Y-105151000D01*
X87330000Y-99804000D02*
X87330000Y-105196000D01*
X87290000Y-99759000D02*
X87290000Y-105241000D01*
X87250000Y-99716000D02*
X87250000Y-105284000D01*
X87210000Y-99674000D02*
X87210000Y-105326000D01*
X87170000Y-99633000D02*
X87170000Y-105367000D01*
X87130000Y-99594000D02*
X87130000Y-105406000D01*
X87090000Y-99555000D02*
X87090000Y-105445000D01*
X87050000Y-99518000D02*
X87050000Y-105482000D01*
X87010000Y-103540000D02*
X87010000Y-105519000D01*
X87010000Y-99481000D02*
X87010000Y-101460000D01*
X86970000Y-103540000D02*
X86970000Y-105555000D01*
X86970000Y-99445000D02*
X86970000Y-101460000D01*
X86930000Y-103540000D02*
X86930000Y-105589000D01*
X86930000Y-99411000D02*
X86930000Y-101460000D01*
X86890000Y-103540000D02*
X86890000Y-105623000D01*
X86890000Y-99377000D02*
X86890000Y-101460000D01*
X86850000Y-103540000D02*
X86850000Y-105656000D01*
X86850000Y-99344000D02*
X86850000Y-101460000D01*
X86810000Y-103540000D02*
X86810000Y-105688000D01*
X86810000Y-99312000D02*
X86810000Y-101460000D01*
X86770000Y-103540000D02*
X86770000Y-105719000D01*
X86770000Y-99281000D02*
X86770000Y-101460000D01*
X86730000Y-103540000D02*
X86730000Y-105750000D01*
X86730000Y-99250000D02*
X86730000Y-101460000D01*
X86690000Y-103540000D02*
X86690000Y-105780000D01*
X86690000Y-99220000D02*
X86690000Y-101460000D01*
X86650000Y-103540000D02*
X86650000Y-105809000D01*
X86650000Y-99191000D02*
X86650000Y-101460000D01*
X86610000Y-103540000D02*
X86610000Y-105837000D01*
X86610000Y-99163000D02*
X86610000Y-101460000D01*
X86570000Y-103540000D02*
X86570000Y-105865000D01*
X86570000Y-99135000D02*
X86570000Y-101460000D01*
X86530000Y-103540000D02*
X86530000Y-105892000D01*
X86530000Y-99108000D02*
X86530000Y-101460000D01*
X86490000Y-103540000D02*
X86490000Y-105918000D01*
X86490000Y-99082000D02*
X86490000Y-101460000D01*
X86450000Y-103540000D02*
X86450000Y-105943000D01*
X86450000Y-99057000D02*
X86450000Y-101460000D01*
X86410000Y-103540000D02*
X86410000Y-105968000D01*
X86410000Y-99032000D02*
X86410000Y-101460000D01*
X86370000Y-103540000D02*
X86370000Y-105993000D01*
X86370000Y-99007000D02*
X86370000Y-101460000D01*
X86330000Y-103540000D02*
X86330000Y-106016000D01*
X86330000Y-98984000D02*
X86330000Y-101460000D01*
X86290000Y-103540000D02*
X86290000Y-106039000D01*
X86290000Y-98961000D02*
X86290000Y-101460000D01*
X86250000Y-103540000D02*
X86250000Y-106062000D01*
X86250000Y-98938000D02*
X86250000Y-101460000D01*
X86210000Y-103540000D02*
X86210000Y-106084000D01*
X86210000Y-98916000D02*
X86210000Y-101460000D01*
X86170000Y-103540000D02*
X86170000Y-106105000D01*
X86170000Y-98895000D02*
X86170000Y-101460000D01*
X86130000Y-103540000D02*
X86130000Y-106126000D01*
X86130000Y-98874000D02*
X86130000Y-101460000D01*
X86090000Y-103540000D02*
X86090000Y-106146000D01*
X86090000Y-98854000D02*
X86090000Y-101460000D01*
X86050000Y-103540000D02*
X86050000Y-106166000D01*
X86050000Y-98834000D02*
X86050000Y-101460000D01*
X86010000Y-103540000D02*
X86010000Y-106185000D01*
X86010000Y-98815000D02*
X86010000Y-101460000D01*
X85970000Y-103540000D02*
X85970000Y-106204000D01*
X85970000Y-98796000D02*
X85970000Y-101460000D01*
X85930000Y-103540000D02*
X85930000Y-106222000D01*
X85930000Y-98778000D02*
X85930000Y-101460000D01*
X85890000Y-103540000D02*
X85890000Y-106240000D01*
X85890000Y-98760000D02*
X85890000Y-101460000D01*
X85850000Y-103540000D02*
X85850000Y-106257000D01*
X85850000Y-98743000D02*
X85850000Y-101460000D01*
X85810000Y-103540000D02*
X85810000Y-106273000D01*
X85810000Y-98727000D02*
X85810000Y-101460000D01*
X85770000Y-103540000D02*
X85770000Y-106289000D01*
X85770000Y-98711000D02*
X85770000Y-101460000D01*
X85730000Y-103540000D02*
X85730000Y-106305000D01*
X85730000Y-98695000D02*
X85730000Y-101460000D01*
X85690000Y-103540000D02*
X85690000Y-106320000D01*
X85690000Y-98680000D02*
X85690000Y-101460000D01*
X85650000Y-103540000D02*
X85650000Y-106335000D01*
X85650000Y-98665000D02*
X85650000Y-101460000D01*
X85610000Y-103540000D02*
X85610000Y-106349000D01*
X85610000Y-98651000D02*
X85610000Y-101460000D01*
X85570000Y-103540000D02*
X85570000Y-106363000D01*
X85570000Y-98637000D02*
X85570000Y-101460000D01*
X85530000Y-103540000D02*
X85530000Y-106376000D01*
X85530000Y-98624000D02*
X85530000Y-101460000D01*
X85490000Y-103540000D02*
X85490000Y-106389000D01*
X85490000Y-98611000D02*
X85490000Y-101460000D01*
X85450000Y-103540000D02*
X85450000Y-106401000D01*
X85450000Y-98599000D02*
X85450000Y-101460000D01*
X85410000Y-103540000D02*
X85410000Y-106413000D01*
X85410000Y-98587000D02*
X85410000Y-101460000D01*
X85370000Y-103540000D02*
X85370000Y-106425000D01*
X85370000Y-98575000D02*
X85370000Y-101460000D01*
X85330000Y-103540000D02*
X85330000Y-106436000D01*
X85330000Y-98564000D02*
X85330000Y-101460000D01*
X85290000Y-103540000D02*
X85290000Y-106447000D01*
X85290000Y-98553000D02*
X85290000Y-101460000D01*
X85250000Y-103540000D02*
X85250000Y-106457000D01*
X85250000Y-98543000D02*
X85250000Y-101460000D01*
X85210000Y-103540000D02*
X85210000Y-106467000D01*
X85210000Y-98533000D02*
X85210000Y-101460000D01*
X85170000Y-103540000D02*
X85170000Y-106476000D01*
X85170000Y-98524000D02*
X85170000Y-101460000D01*
X85130000Y-103540000D02*
X85130000Y-106485000D01*
X85130000Y-98515000D02*
X85130000Y-101460000D01*
X85090000Y-103540000D02*
X85090000Y-106493000D01*
X85090000Y-98507000D02*
X85090000Y-101460000D01*
X85050000Y-103540000D02*
X85050000Y-106502000D01*
X85050000Y-98498000D02*
X85050000Y-101460000D01*
X85010000Y-103540000D02*
X85010000Y-106509000D01*
X85010000Y-98491000D02*
X85010000Y-101460000D01*
X84970000Y-103540000D02*
X84970000Y-106517000D01*
X84970000Y-98483000D02*
X84970000Y-101460000D01*
X84930000Y-98477000D02*
X84930000Y-106523000D01*
X84890000Y-98470000D02*
X84890000Y-106530000D01*
X84850000Y-98464000D02*
X84850000Y-106536000D01*
X84810000Y-98458000D02*
X84810000Y-106542000D01*
X84770000Y-98453000D02*
X84770000Y-106547000D01*
X84730000Y-98448000D02*
X84730000Y-106552000D01*
X84690000Y-98444000D02*
X84690000Y-106556000D01*
X84650000Y-98439000D02*
X84650000Y-106561000D01*
X84610000Y-98436000D02*
X84610000Y-106564000D01*
X84570000Y-98432000D02*
X84570000Y-106568000D01*
X84530000Y-98430000D02*
X84530000Y-106570000D01*
X84490000Y-98427000D02*
X84490000Y-106573000D01*
X84450000Y-98425000D02*
X84450000Y-106575000D01*
X84410000Y-98423000D02*
X84410000Y-106577000D01*
X84370000Y-98422000D02*
X84370000Y-106578000D01*
X84330000Y-98421000D02*
X84330000Y-106579000D01*
X84290000Y-98420000D02*
X84290000Y-106580000D01*
X84250000Y-98420000D02*
X84250000Y-106580000D01*
X80240302Y-99785000D02*
X80240302Y-100585000D01*
X79840302Y-100185000D02*
X80640302Y-100185000D01*
%TO.C,BUZZER*%
X94730000Y-105170000D02*
X97330000Y-105170000D01*
X92130000Y-105170000D02*
X93460000Y-105170000D01*
X92130000Y-106500000D02*
X92130000Y-105170000D01*
X97330000Y-107830000D02*
X97330000Y-105170000D01*
X94730000Y-107830000D02*
X94730000Y-105170000D01*
X94730000Y-107830000D02*
X97330000Y-107830000D01*
%TO.C,C1*%
X108620000Y-97880000D02*
X108620000Y-107120000D01*
X107180000Y-97880000D02*
X108620000Y-97880000D01*
X103380000Y-97880000D02*
X104820000Y-97880000D01*
X108620000Y-107120000D02*
X107180000Y-107120000D01*
X104820000Y-107120000D02*
X103380000Y-107120000D01*
X103380000Y-107120000D02*
X103380000Y-97880000D01*
%TO.C,U1*%
X95505000Y-91860000D02*
G75*
G02*
X93505000Y-91860000I-1000000J0D01*
G01*
X97155000Y-102140000D02*
X97155000Y-91860000D01*
X97155000Y-91860000D02*
X95505000Y-91860000D01*
X93505000Y-91860000D02*
X91855000Y-91860000D01*
X91855000Y-102140000D02*
X97155000Y-102140000D01*
X91855000Y-91860000D02*
X91855000Y-102140000D01*
%TD*%
M02*
